# Blender v2.79 (sub 0) OBJ File: 'at.blend'
# www.blender.org
mtllib at.mtl
o Text_CUText
v 0.286478 -0.168581 0.050000
v 0.228837 -0.168581 0.050000
v 0.218388 -0.100321 0.050000
v 0.195428 -0.124576 0.050000
v 0.150799 -0.158412 0.050000
v 0.107914 -0.176760 0.050000
v 0.075727 -0.182266 0.050000
v 0.040886 -0.181374 0.050000
v 0.003219 -0.171494 0.050000
v -0.027479 -0.154287 0.050000
v -0.046513 -0.136916 0.050000
v -0.063555 -0.114404 0.050000
v -0.080818 -0.072296 0.050000
v -0.085064 -0.020231 0.050000
v -0.076314 0.024273 0.050000
v -0.061891 0.053067 0.050000
v -0.036735 0.082931 0.050000
v 0.011821 0.113907 0.050000
v 0.078283 0.139401 0.050000
v 0.159235 0.158537 0.050000
v 0.219614 0.167423 0.050000
v 0.219056 0.208668 0.050000
v 0.210623 0.261039 0.050000
v 0.193594 0.305663 0.050000
v 0.173888 0.334304 0.050000
v 0.149196 0.357850 0.050000
v 0.117239 0.375329 0.050000
v 0.080915 0.385776 0.050000
v 0.034514 0.387363 0.050000
v 0.001233 0.382666 0.050000
v -0.031357 0.372560 0.050000
v -0.063112 0.356938 0.050000
v -0.092316 0.336233 0.050000
v -0.119228 0.310185 0.050000
v -0.143857 0.278616 0.050000
v -0.174540 0.223082 0.050000
v -0.197735 0.151900 0.050000
v -0.211494 0.072808 0.050000
v -0.212753 -0.052565 0.050000
v -0.199712 -0.138985 0.050000
v -0.183820 -0.193074 0.050000
v -0.158873 -0.251084 0.050000
v -0.127506 -0.297997 0.050000
v -0.101193 -0.326586 0.050000
v -0.072141 -0.349838 0.050000
v -0.036134 -0.369850 0.050000
v 0.002254 -0.382302 0.050000
v 0.037564 -0.387317 0.050000
v 0.090750 -0.386090 0.050000
v 0.138989 -0.375873 0.050000
v 0.174284 -0.361203 0.050000
v 0.215179 -0.336035 0.050000
v 0.247494 -0.388203 0.050000
v 0.177672 -0.427152 0.050000
v 0.118632 -0.445225 0.050000
v 0.049898 -0.452099 0.050000
v -0.010824 -0.445334 0.050000
v -0.053198 -0.433054 0.050000
v -0.094233 -0.414108 0.050000
v -0.131875 -0.389124 0.050000
v -0.166310 -0.357920 0.050000
v -0.197574 -0.320308 0.050000
v -0.224465 -0.276848 0.050000
v -0.247291 -0.226869 0.050000
v -0.266016 -0.169939 0.050000
v -0.278699 -0.108460 0.050000
v -0.285510 -0.040744 0.050000
v -0.286289 0.033193 0.050000
v -0.281193 0.102078 0.050000
v -0.268771 0.171859 0.050000
v -0.248892 0.234016 0.050000
v -0.226549 0.282590 0.050000
v -0.199900 0.324762 0.050000
v -0.156194 0.373932 0.050000
v -0.101112 0.413017 0.050000
v -0.054657 0.433744 0.050000
v -0.011178 0.445554 0.050000
v 0.034260 0.451066 0.050000
v 0.096568 0.448988 0.050000
v 0.159317 0.429868 0.050000
v 0.202443 0.400790 0.050000
v 0.233474 0.367282 0.050000
v 0.255904 0.328650 0.050000
v 0.273488 0.282246 0.050000
v 0.285648 0.210984 0.050000
v 0.022355 0.042430 0.050000
v 0.001526 0.016057 0.050000
v -0.008169 -0.014458 0.050000
v -0.007745 -0.044958 0.050000
v -0.000491 -0.070149 0.050000
v 0.017711 -0.094338 0.050000
v 0.042296 -0.108622 0.050000
v 0.066124 -0.114440 0.050000
v 0.100513 -0.114595 0.050000
v 0.131814 -0.105064 0.050000
v 0.163561 -0.087470 0.050000
v 0.212501 -0.042441 0.050000
v 0.212697 0.104856 0.050000
v 0.163808 0.097307 0.050000
v 0.101277 0.082459 0.050000
v 0.054465 0.064227 0.050000
v 0.286478 -0.168581 -0.050000
v 0.228837 -0.168581 -0.050000
v 0.218388 -0.100321 -0.050000
v 0.195428 -0.124576 -0.050000
v 0.150799 -0.158412 -0.050000
v 0.107914 -0.176760 -0.050000
v 0.075727 -0.182266 -0.050000
v 0.040886 -0.181374 -0.050000
v 0.003219 -0.171494 -0.050000
v -0.027479 -0.154287 -0.050000
v -0.046513 -0.136916 -0.050000
v -0.063555 -0.114404 -0.050000
v -0.080818 -0.072296 -0.050000
v -0.085064 -0.020231 -0.050000
v -0.076314 0.024273 -0.050000
v -0.061891 0.053067 -0.050000
v -0.036735 0.082931 -0.050000
v 0.011821 0.113907 -0.050000
v 0.078283 0.139401 -0.050000
v 0.159235 0.158537 -0.050000
v 0.219614 0.167423 -0.050000
v 0.219056 0.208668 -0.050000
v 0.210623 0.261039 -0.050000
v 0.193594 0.305663 -0.050000
v 0.173888 0.334304 -0.050000
v 0.149196 0.357850 -0.050000
v 0.117239 0.375329 -0.050000
v 0.080915 0.385776 -0.050000
v 0.017535 0.386327 -0.050000
v -0.031357 0.372560 -0.050000
v -0.063112 0.356938 -0.050000
v -0.092316 0.336233 -0.050000
v -0.119228 0.310185 -0.050000
v -0.143857 0.278616 -0.050000
v -0.174540 0.223082 -0.050000
v -0.197735 0.151900 -0.050000
v -0.211494 0.072808 -0.050000
v -0.212753 -0.052565 -0.050000
v -0.199712 -0.138985 -0.050000
v -0.183820 -0.193074 -0.050000
v -0.158873 -0.251084 -0.050000
v -0.127506 -0.297997 -0.050000
v -0.101193 -0.326586 -0.050000
v -0.072141 -0.349838 -0.050000
v -0.036134 -0.369850 -0.050000
v 0.002254 -0.382302 -0.050000
v 0.037564 -0.387317 -0.050000
v 0.090750 -0.386090 -0.050000
v 0.138989 -0.375873 -0.050000
v 0.174284 -0.361203 -0.050000
v 0.215179 -0.336035 -0.050000
v 0.247494 -0.388203 -0.050000
v 0.177672 -0.427152 -0.050000
v 0.118632 -0.445225 -0.050000
v 0.049898 -0.452099 -0.050000
v -0.010824 -0.445334 -0.050000
v -0.053198 -0.433054 -0.050000
v -0.094233 -0.414108 -0.050000
v -0.131875 -0.389124 -0.050000
v -0.166310 -0.357920 -0.050000
v -0.197574 -0.320308 -0.050000
v -0.224465 -0.276848 -0.050000
v -0.247291 -0.226869 -0.050000
v -0.266016 -0.169939 -0.050000
v -0.278699 -0.108460 -0.050000
v -0.285510 -0.040744 -0.050000
v -0.286289 0.033193 -0.050000
v -0.281193 0.102078 -0.050000
v -0.268771 0.171859 -0.050000
v -0.248892 0.234016 -0.050000
v -0.226549 0.282590 -0.050000
v -0.199900 0.324762 -0.050000
v -0.156194 0.373932 -0.050000
v -0.101112 0.413017 -0.050000
v -0.054657 0.433744 -0.050000
v -0.011178 0.445554 -0.050000
v 0.034260 0.451066 -0.050000
v 0.096568 0.448988 -0.050000
v 0.159317 0.429868 -0.050000
v 0.202443 0.400790 -0.050000
v 0.233474 0.367282 -0.050000
v 0.255904 0.328650 -0.050000
v 0.273488 0.282246 -0.050000
v 0.285648 0.210984 -0.050000
v 0.022355 0.042430 -0.050000
v 0.001526 0.016057 -0.050000
v -0.008169 -0.014458 -0.050000
v -0.007745 -0.044958 -0.050000
v -0.000491 -0.070149 -0.050000
v 0.017711 -0.094338 -0.050000
v 0.042296 -0.108622 -0.050000
v 0.066124 -0.114440 -0.050000
v 0.100513 -0.114595 -0.050000
v 0.131814 -0.105064 -0.050000
v 0.163561 -0.087470 -0.050000
v 0.212501 -0.042441 -0.050000
v 0.212697 0.104856 -0.050000
v 0.163808 0.097307 -0.050000
v 0.101277 0.082459 -0.050000
v 0.054465 0.064227 -0.050000
v 0.286478 -0.168581 -0.050000
v 0.286478 -0.168581 0.050000
v 0.228837 -0.168581 -0.050000
v 0.228837 -0.168581 0.050000
v 0.218559 -0.102104 -0.050000
v 0.218557 -0.100090 0.050000
v 0.146788 -0.163751 0.050000
v 0.118385 -0.176886 -0.050000
v 0.055547 -0.183437 0.050000
v 0.020084 -0.178446 -0.050000
v -0.020783 -0.161368 0.050000
v -0.035905 -0.148182 -0.050000
v -0.076585 -0.091453 -0.050000
v -0.063160 -0.115064 0.050000
v -0.085276 -0.054999 0.050000
v -0.082903 0.015602 -0.050000
v -0.072898 0.034992 0.050000
v -0.000743 0.112509 -0.050000
v -0.022316 0.096510 0.050000
v 0.109114 0.149039 0.050000
v 0.219293 0.169091 -0.050000
v 0.221721 0.168849 0.050000
v 0.216691 0.238302 -0.050000
v 0.200010 0.298608 0.050000
v 0.187168 0.318046 -0.050000
v 0.138134 0.366177 -0.050000
v 0.139914 0.365082 0.050000
v 0.046685 0.390706 -0.050000
v 0.049507 0.390684 0.050000
v -0.080388 0.349721 -0.050000
v -0.078043 0.351373 0.050000
v -0.166174 0.243754 -0.050000
v -0.164593 0.246883 0.050000
v -0.209289 0.101231 -0.050000
v -0.208658 0.105597 0.050000
v -0.212582 -0.054847 -0.050000
v -0.212912 -0.050228 0.050000
v -0.181233 -0.209324 -0.050000
v -0.182748 -0.205438 0.050000
v -0.100441 -0.329866 -0.050000
v -0.102701 -0.327766 0.050000
v 0.010488 -0.387728 -0.050000
v 0.008016 -0.387313 0.050000
v 0.143028 -0.376152 -0.050000
v 0.128641 -0.379658 0.050000
v 0.213525 -0.338961 0.050000
v 0.215205 -0.335962 -0.050000
v 0.245947 -0.391190 -0.050000
v 0.247514 -0.388130 0.050000
v 0.154092 -0.437579 0.050000
v 0.137072 -0.441761 -0.050000
v 0.003316 -0.451666 -0.050000
v 0.006437 -0.452087 0.050000
v -0.133996 -0.390337 -0.050000
v -0.131090 -0.392591 0.050000
v -0.226042 -0.278560 -0.050000
v -0.224031 -0.282291 0.050000
v -0.280742 -0.109898 -0.050000
v -0.279942 -0.115017 0.050000
v -0.281637 0.118271 -0.050000
v -0.282364 0.113086 0.050000
v -0.226279 0.287789 -0.050000
v -0.228257 0.284172 0.050000
v -0.150601 0.379215 -0.050000
v -0.119102 0.406937 0.050000
v -0.033874 0.444495 -0.050000
v 0.052519 0.455199 0.050000
v 0.132742 0.443257 -0.050000
v 0.172979 0.423716 0.050000
v 0.232749 0.372317 -0.050000
v 0.239919 0.359928 0.050000
v 0.282733 0.248628 -0.050000
v 0.282266 0.251416 0.050000
v 0.009668 0.030957 0.050000
v -0.006268 0.000980 -0.050000
v -0.010740 -0.045090 0.050000
v -0.004964 -0.061466 -0.050000
v 0.035028 -0.108566 -0.050000
v 0.033347 -0.107767 0.050000
v 0.131762 -0.108963 -0.050000
v 0.119018 -0.112224 0.050000
v 0.209674 -0.047987 0.050000
v 0.212581 -0.042201 -0.050000
v 0.212113 0.106237 -0.050000
v 0.212479 0.106083 0.050000
v 0.045714 0.062997 -0.050000
v 0.073562 0.073997 0.050000
vn 0.0000 0.0000 1.0000
vn 0.0000 0.0000 -1.0000
vn 0.9819 0.1892 -0.0042
vn 0.7103 -0.7038 0.0005
vn 0.7103 -0.7039 0.0000
vn 0.4704 -0.8824 0.0103
vn -0.3639 -0.9311 -0.0248
vn -0.3375 -0.9411 0.0189
vn -0.0372 -0.9989 0.0265
vn 0.3170 -0.9481 -0.0264
vn -0.5336 -0.8455 0.0206
vn -0.2414 -0.9700 -0.0265
vn -0.9934 -0.1126 0.0197
vn -0.9385 -0.3440 -0.0293
vn -0.8501 -0.5262 0.0211
vn -0.9006 0.4346 0.0058
vn -0.9491 0.3139 -0.0263
vn -0.2597 0.9653 -0.0262
vn -0.5263 0.8500 -0.0204
vn -0.6193 0.7851 -0.0031
vn -0.8050 0.5929 -0.0167
vn -0.7856 0.6187 -0.0061
vn -0.8973 -0.4407 -0.0236
vn -0.9825 -0.1862 0.0005
vn 0.2398 0.9707 0.0142
vn -0.2967 0.9549 0.0075
vn -0.2426 0.9701 -0.0080
vn 0.2933 -0.9560 0.0056
vn 0.9501 -0.3109 -0.0248
vn 0.9708 -0.2388 0.0215
vn 0.0011 0.9999 0.0111
vn -0.2562 0.9666 0.0059
vn -0.5423 0.8399 0.0224
vn 0.5020 0.8647 0.0190
vn 0.3124 0.9495 -0.0300
vn 0.8391 0.5438 0.0108
vn 0.7915 0.6108 -0.0207
vn 0.8103 -0.5848 -0.0381
vn 0.5266 -0.8497 0.0262
vn 0.3774 -0.9260 -0.0125
vn 0.9825 0.1813 -0.0417
vn 0.9449 -0.3260 0.0313
vn -0.8844 0.4662 -0.0204
vn -0.3430 0.9393 0.0088
vn -0.2642 0.9643 -0.0157
vn -0.6508 -0.7592 0.0000
vn -0.6519 -0.7583 0.0012
vn -0.6649 -0.7464 -0.0261
vn -0.8302 -0.5571 0.0154
vn -0.5209 -0.8535 -0.0133
vn -0.4961 -0.8683 0.0029
vn 0.0098 -0.9999 -0.0041
vn 0.0261 -0.9996 0.0028
vn 0.5544 -0.8322 -0.0030
vn 0.5670 -0.8237 0.0035
vn 0.8786 -0.4776 -0.0021
vn 0.8844 -0.4667 0.0031
vn 0.9863 -0.1651 -0.0015
vn 0.9879 -0.1550 0.0023
vn 0.9967 0.0811 -0.0022
vn 0.9959 0.0899 0.0015
vn 0.9274 0.3740 -0.0029
vn 0.9222 0.3866 0.0021
vn 0.6771 0.7359 -0.0034
vn 0.6664 0.7456 0.0030
vn 0.2141 0.9768 -0.0023
vn 0.1978 0.9802 0.0075
vn 0.2614 0.9652 0.0068
vn 0.2405 -0.9706 -0.0078
vn -0.1567 -0.9876 0.0076
vn -0.1733 -0.9848 -0.0022
vn -0.5955 -0.8033 0.0026
vn -0.6074 -0.7944 -0.0035
vn -0.8713 -0.4907 0.0025
vn -0.8779 -0.4788 -0.0029
vn -0.9858 -0.1678 0.0020
vn -0.9878 -0.1556 -0.0021
vn -0.9895 0.1446 0.0023
vn -0.9875 0.1572 -0.0018
vn -0.8752 0.4836 0.0123
vn -0.8735 0.4868 0.0003
vn -0.6644 0.7473 -0.0107
vn 0.9290 0.3697 0.0172
vn 0.4739 0.8803 -0.0194
vn 0.4272 0.9040 0.0124
vn -0.9098 0.4151 0.0044
vn -0.6258 -0.7799 -0.0085
vn -0.6155 -0.7880 0.0132
vn 0.9812 0.1931 -0.0008
usemtl Material.001
s off
f 77//1 79//1 78//1
f 77//1 80//1 79//1
f 76//1 80//1 77//1
f 75//1 80//1 76//1
f 75//1 81//1 80//1
f 74//1 81//1 75//1
f 74//1 29//1 81//1
f 29//1 28//1 81//1
f 28//1 82//1 81//1
f 74//1 30//1 29//1
f 27//1 82//1 28//1
f 74//1 31//1 30//1
f 26//1 82//1 27//1
f 74//1 32//1 31//1
f 74//1 33//1 32//1
f 73//1 33//1 74//1
f 26//1 83//1 82//1
f 25//1 83//1 26//1
f 24//1 83//1 25//1
f 73//1 34//1 33//1
f 24//1 84//1 83//1
f 72//1 34//1 73//1
f 72//1 35//1 34//1
f 23//1 84//1 24//1
f 72//1 36//1 35//1
f 71//1 36//1 72//1
f 23//1 85//1 84//1
f 22//1 85//1 23//1
f 70//1 36//1 71//1
f 21//1 85//1 22//1
f 70//1 37//1 36//1
f 21//1 1//1 85//1
f 20//1 98//1 21//1
f 98//1 1//1 21//1
f 19//1 98//1 20//1
f 69//1 37//1 70//1
f 69//1 38//1 37//1
f 18//1 98//1 19//1
f 18//1 99//1 98//1
f 97//1 1//1 98//1
f 17//1 99//1 18//1
f 17//1 100//1 99//1
f 68//1 38//1 69//1
f 17//1 101//1 100//1
f 16//1 101//1 17//1
f 16//1 86//1 101//1
f 15//1 86//1 16//1
f 15//1 87//1 86//1
f 68//1 39//1 38//1
f 14//1 87//1 15//1
f 67//1 39//1 68//1
f 14//1 88//1 87//1
f 14//1 89//1 88//1
f 13//1 89//1 14//1
f 13//1 90//1 89//1
f 96//1 3//1 97//1
f 3//1 1//1 97//1
f 66//1 39//1 67//1
f 13//1 91//1 90//1
f 12//1 91//1 13//1
f 95//1 3//1 96//1
f 66//1 40//1 39//1
f 2//1 1//1 3//1
f 12//1 92//1 91//1
f 95//1 4//1 3//1
f 94//1 4//1 95//1
f 12//1 93//1 92//1
f 12//1 94//1 93//1
f 12//1 4//1 94//1
f 11//1 4//1 12//1
f 65//1 40//1 66//1
f 11//1 5//1 4//1
f 10//1 5//1 11//1
f 9//1 5//1 10//1
f 65//1 41//1 40//1
f 9//1 6//1 5//1
f 8//1 6//1 9//1
f 8//1 7//1 6//1
f 64//1 41//1 65//1
f 64//1 42//1 41//1
f 63//1 42//1 64//1
f 63//1 43//1 42//1
f 62//1 43//1 63//1
f 62//1 44//1 43//1
f 61//1 44//1 62//1
f 61//1 45//1 44//1
f 51//1 53//1 52//1
f 61//1 46//1 45//1
f 50//1 53//1 51//1
f 60//1 46//1 61//1
f 60//1 47//1 46//1
f 49//1 53//1 50//1
f 60//1 48//1 47//1
f 48//1 53//1 49//1
f 60//1 53//1 48//1
f 59//1 53//1 60//1
f 59//1 54//1 53//1
f 58//1 54//1 59//1
f 58//1 55//1 54//1
f 57//1 55//1 58//1
f 56//1 55//1 57//1
f 179//2 177//2 178//2
f 180//2 177//2 179//2
f 180//2 176//2 177//2
f 180//2 175//2 176//2
f 181//2 175//2 180//2
f 181//2 174//2 175//2
f 130//2 174//2 181//2
f 129//2 130//2 181//2
f 182//2 129//2 181//2
f 182//2 128//2 129//2
f 131//2 174//2 130//2
f 182//2 127//2 128//2
f 132//2 174//2 131//2
f 133//2 174//2 132//2
f 133//2 173//2 174//2
f 183//2 127//2 182//2
f 183//2 126//2 127//2
f 183//2 125//2 126//2
f 134//2 173//2 133//2
f 184//2 125//2 183//2
f 134//2 172//2 173//2
f 135//2 172//2 134//2
f 184//2 124//2 125//2
f 136//2 172//2 135//2
f 136//2 171//2 172//2
f 185//2 124//2 184//2
f 185//2 123//2 124//2
f 136//2 170//2 171//2
f 185//2 122//2 123//2
f 137//2 170//2 136//2
f 102//2 122//2 185//2
f 198//2 121//2 122//2
f 102//2 198//2 122//2
f 198//2 120//2 121//2
f 137//2 169//2 170//2
f 138//2 169//2 137//2
f 198//2 119//2 120//2
f 199//2 119//2 198//2
f 102//2 197//2 198//2
f 199//2 118//2 119//2
f 200//2 118//2 199//2
f 138//2 168//2 169//2
f 201//2 118//2 200//2
f 201//2 117//2 118//2
f 186//2 117//2 201//2
f 186//2 116//2 117//2
f 187//2 116//2 186//2
f 139//2 168//2 138//2
f 187//2 115//2 116//2
f 139//2 167//2 168//2
f 188//2 115//2 187//2
f 189//2 115//2 188//2
f 189//2 114//2 115//2
f 190//2 114//2 189//2
f 104//2 196//2 197//2
f 102//2 104//2 197//2
f 139//2 166//2 167//2
f 191//2 114//2 190//2
f 191//2 113//2 114//2
f 104//2 195//2 196//2
f 140//2 166//2 139//2
f 102//2 103//2 104//2
f 192//2 113//2 191//2
f 105//2 195//2 104//2
f 105//2 194//2 195//2
f 193//2 113//2 192//2
f 194//2 113//2 193//2
f 105//2 113//2 194//2
f 105//2 112//2 113//2
f 140//2 165//2 166//2
f 106//2 112//2 105//2
f 106//2 111//2 112//2
f 106//2 110//2 111//2
f 141//2 165//2 140//2
f 107//2 110//2 106//2
f 107//2 109//2 110//2
f 108//2 109//2 107//2
f 141//2 164//2 165//2
f 142//2 164//2 141//2
f 142//2 163//2 164//2
f 143//2 163//2 142//2
f 143//2 162//2 163//2
f 144//2 162//2 143//2
f 144//2 161//2 162//2
f 145//2 161//2 144//2
f 153//2 151//2 152//2
f 146//2 161//2 145//2
f 153//2 150//2 151//2
f 146//2 160//2 161//2
f 147//2 160//2 146//2
f 153//2 149//2 150//2
f 148//2 160//2 147//2
f 153//2 148//2 149//2
f 153//2 160//2 148//2
f 153//2 159//2 160//2
f 154//2 159//2 153//2
f 154//2 158//2 159//2
f 155//2 158//2 154//2
f 155//2 157//2 158//2
f 155//2 156//2 157//2
s 1
f 273//3 203//4 202//5
f 208//6 206//7 207//8
f 210//9 209//10 208//6
f 212//11 211//12 210//9
f 216//13 214//14 215//15
f 218//16 217//17 216//13
f 221//18 219//19 220//20
f 223//21 222//22 221//18
f 225//23 224//24 223//21
f 247//25 245//26 246//27
f 251//28 249//29 250//30
f 268//31 267//32 266//33
f 270//34 269//35 268//31
f 272//36 271//37 270//34
f 275//38 287//39 288//40
f 277//41 276//42 275//38
f 283//43 281//44 282//45
f 203//4 204//46 202//5
f 205//47 206//7 204//46
f 213//48 215//15 214//14
f 208//6 209//10 206//7
f 210//9 211//12 209//10
f 212//11 213//48 211//12
f 217//17 220//20 219//19
f 216//13 217//17 214//14
f 226//49 228//50 227//51
f 221//18 222//22 219//19
f 223//21 224//24 222//22
f 225//23 226//49 224//24
f 227//51 230//52 229//53
f 229//53 232//54 231//55
f 231//55 234//56 233//57
f 233//57 236//58 235//59
f 235//59 238//60 237//61
f 237//61 240//62 239//63
f 239//63 242//64 241//65
f 241//65 244//66 243//67
f 243//67 246//27 245//26
f 248//68 250//30 249//29
f 247//25 248//68 245//26
f 252//69 254//70 253//71
f 251//28 252//69 249//29
f 253//71 256//72 255//73
f 255//73 258//74 257//75
f 257//75 260//76 259//77
f 259//77 262//78 261//79
f 261//79 264//80 263//81
f 264//80 265//82 263//81
f 272//36 273//3 271//37
f 266//33 267//32 265//82
f 268//31 269//35 267//32
f 270//34 271//37 269//35
f 278//83 280//84 279//85
f 275//38 276//42 287//39
f 277//41 278//83 276//42
f 279//85 282//45 281//44
f 284//86 286//87 285//88
f 283//43 284//86 281//44
f 285//88 288//40 287//39
f 273//3 274//89 203//4
f 203//4 205//47 204//46
f 205//47 207//8 206//7
f 213//48 212//11 215//15
f 217//17 218//16 220//20
f 226//49 225//23 228//50
f 227//51 228//50 230//52
f 229//53 230//52 232//54
f 231//55 232//54 234//56
f 233//57 234//56 236//58
f 235//59 236//58 238//60
f 237//61 238//60 240//62
f 239//63 240//62 242//64
f 241//65 242//64 244//66
f 243//67 244//66 246//27
f 248//68 247//25 250//30
f 252//69 251//28 254//70
f 253//71 254//70 256//72
f 255//73 256//72 258//74
f 257//75 258//74 260//76
f 259//77 260//76 262//78
f 261//79 262//78 264//80
f 264//80 266//33 265//82
f 272//36 274//89 273//3
f 278//83 277//41 280//84
f 279//85 280//84 282//45
f 284//86 283//43 286//87
f 285//88 286//87 288//40
