# Blender v2.79 (sub 0) OBJ File: 'equal.blend'
# www.blender.org
mtllib equal.mtl
o Text_CUText
v -0.479911 0.050000 -0.166100
v -0.479911 0.050000 -0.302500
v 0.479911 0.050000 -0.302500
v 0.479911 0.050000 -0.166100
v -0.479911 0.050000 0.302500
v -0.479911 0.050000 0.166100
v 0.479911 0.050000 0.166100
v 0.479911 0.050000 0.302500
v -0.479911 -0.050000 -0.166100
v -0.479911 -0.050000 -0.302500
v 0.479911 -0.050000 -0.302500
v 0.479911 -0.050000 -0.166100
v -0.479911 -0.050000 0.302500
v -0.479911 -0.050000 0.166100
v 0.479911 -0.050000 0.166100
v 0.479911 -0.050000 0.302500
v -0.479911 -0.050000 -0.166100
v -0.479911 0.050000 -0.166100
v -0.479911 -0.050000 -0.302500
v -0.479911 0.050000 -0.302500
v 0.479911 -0.050000 -0.302500
v 0.479911 0.050000 -0.302500
v 0.479911 -0.050000 -0.166100
v 0.479911 0.050000 -0.166100
v -0.479911 -0.050000 0.302500
v -0.479911 0.050000 0.302500
v -0.479911 -0.050000 0.166100
v -0.479911 0.050000 0.166100
v 0.479911 -0.050000 0.166100
v 0.479911 0.050000 0.166100
v 0.479911 -0.050000 0.302500
v 0.479911 0.050000 0.302500
vt 0.000000 0.000000
vt 1.000000 0.000000
vt 1.000000 1.000000
vt 1.000000 0.000000
vt 1.000000 1.000000
vt 0.000000 0.000000
vt 1.000000 0.000000
vt 1.000000 1.000000
vt 1.000000 0.000000
vt 1.000000 1.000000
vt 0.000000 0.000000
vt 1.000000 0.000000
vt 1.000000 1.000000
vt 0.000000 0.000000
vt 1.000000 1.000000
vt 0.000000 0.000000
vt 1.000000 0.000000
vt 1.000000 1.000000
vt 0.000000 0.000000
vt 1.000000 1.000000
vt 0.000000 0.000000
vt 1.000000 0.000000
vt 1.000000 1.000000
vt 0.000000 1.000000
vt 0.000000 0.000000
vt 1.000000 0.000000
vt 1.000000 1.000000
vt 0.000000 1.000000
vt 0.000000 0.000000
vt 1.000000 0.000000
vt 1.000000 1.000000
vt 0.000000 1.000000
vt 0.000000 0.000000
vt 1.000000 0.000000
vt 1.000000 1.000000
vt 0.000000 1.000000
vt 0.000000 0.000000
vt 1.000000 0.000000
vt 1.000000 1.000000
vt 0.000000 1.000000
vt 0.000000 0.000000
vt 1.000000 0.000000
vt 1.000000 1.000000
vt 0.000000 1.000000
vt 0.000000 0.000000
vt 1.000000 0.000000
vt 1.000000 1.000000
vt 0.000000 1.000000
vt 0.000000 0.000000
vt 1.000000 0.000000
vt 1.000000 1.000000
vt 0.000000 1.000000
vn 0.0000 1.0000 0.0000
vn 0.0000 -1.0000 0.0000
vn -0.7071 0.0000 0.7071
vn -0.7071 0.0000 -0.7071
vn 0.7071 0.0000 -0.7071
vn 0.7071 0.0000 0.7071
usemtl Material.001
s off
f 5/1/1 7/2/1 6/3/1
f 5/1/1 8/4/1 7/5/1
f 1/6/1 3/7/1 2/8/1
f 1/6/1 4/9/1 3/10/1
f 15/11/2 13/12/2 14/13/2
f 16/14/2 13/12/2 15/15/2
f 11/16/2 9/17/2 10/18/2
f 12/19/2 9/17/2 11/20/2
s 1
f 18/21/3 20/22/4 19/23/4 17/24/3
f 20/25/4 22/26/5 21/27/5 19/28/4
f 22/29/5 24/30/6 23/31/6 21/32/5
f 24/33/6 18/34/3 17/35/3 23/36/6
f 26/37/3 28/38/4 27/39/4 25/40/3
f 28/41/4 30/42/5 29/43/5 27/44/4
f 30/45/5 32/46/6 31/47/6 29/48/5
f 32/49/6 26/50/3 25/51/3 31/52/6
