# Blender v2.79 (sub 0) OBJ File: 'hashtag.blend'
# www.blender.org
mtllib hashtag.mtl
o Text
v -0.115000 0.020000 0.232143
v -0.097857 0.020000 0.086429
v -0.154286 0.020000 0.086429
v -0.154286 0.020000 0.045714
v -0.092857 0.020000 0.045714
v -0.079286 0.020000 -0.060000
v -0.140000 0.020000 -0.060000
v -0.140000 0.020000 -0.101429
v -0.075000 0.020000 -0.101429
v -0.057857 0.020000 -0.232143
v -0.020000 0.020000 -0.232143
v -0.036429 0.020000 -0.101429
v 0.057857 0.020000 -0.101429
v 0.075000 0.020000 -0.232143
v 0.112857 0.020000 -0.232143
v 0.096429 0.020000 -0.101429
v 0.154286 0.020000 -0.101429
v 0.154286 0.020000 -0.060000
v 0.092143 0.020000 -0.060000
v 0.078571 0.020000 0.045714
v 0.140000 0.020000 0.045714
v 0.140000 0.020000 0.086429
v 0.073571 0.020000 0.086429
v 0.056429 0.020000 0.232143
v 0.017857 0.020000 0.232143
v 0.035714 0.020000 0.086429
v -0.059286 0.020000 0.086429
v -0.076429 0.020000 0.232143
v -0.054286 0.020000 0.045714
v 0.040000 0.020000 0.045714
v 0.053571 0.020000 -0.060000
v -0.041429 0.020000 -0.060000
v -0.115000 -0.020000 0.232143
v -0.097857 -0.020000 0.086429
v -0.154286 -0.020000 0.086429
v -0.154286 -0.020000 0.045714
v -0.092857 -0.020000 0.045714
v -0.079286 -0.020000 -0.060000
v -0.140000 -0.020000 -0.060000
v -0.140000 -0.020000 -0.101429
v -0.075000 -0.020000 -0.101429
v -0.057857 -0.020000 -0.232143
v -0.020000 -0.020000 -0.232143
v -0.036429 -0.020000 -0.101429
v 0.057857 -0.020000 -0.101429
v 0.075000 -0.020000 -0.232143
v 0.112857 -0.020000 -0.232143
v 0.096429 -0.020000 -0.101429
v 0.154286 -0.020000 -0.101429
v 0.154286 -0.020000 -0.060000
v 0.092143 -0.020000 -0.060000
v 0.078571 -0.020000 0.045714
v 0.140000 -0.020000 0.045714
v 0.140000 -0.020000 0.086429
v 0.073571 -0.020000 0.086429
v 0.056429 -0.020000 0.232143
v 0.017857 -0.020000 0.232143
v 0.035714 -0.020000 0.086429
v -0.059286 -0.020000 0.086429
v -0.076429 -0.020000 0.232143
v -0.054286 -0.020000 0.045714
v 0.040000 -0.020000 0.045714
v 0.053571 -0.020000 -0.060000
v -0.041429 -0.020000 -0.060000
v -0.115000 -0.020000 0.232143
v -0.115000 0.020000 0.232143
v -0.097857 -0.020000 0.086429
v -0.097857 0.020000 0.086429
v -0.154286 -0.020000 0.086429
v -0.154286 0.020000 0.086429
v -0.154286 -0.020000 0.045714
v -0.154286 0.020000 0.045714
v -0.092857 -0.020000 0.045714
v -0.092857 0.020000 0.045714
v -0.079286 -0.020000 -0.060000
v -0.079286 0.020000 -0.060000
v -0.140000 -0.020000 -0.060000
v -0.140000 0.020000 -0.060000
v -0.140000 -0.020000 -0.101429
v -0.140000 0.020000 -0.101429
v -0.075000 -0.020000 -0.101429
v -0.075000 0.020000 -0.101429
v -0.057857 -0.020000 -0.232143
v -0.057857 0.020000 -0.232143
v -0.020000 -0.020000 -0.232143
v -0.020000 0.020000 -0.232143
v -0.036429 -0.020000 -0.101429
v -0.036429 0.020000 -0.101429
v 0.057857 -0.020000 -0.101429
v 0.057857 0.020000 -0.101429
v 0.075000 -0.020000 -0.232143
v 0.075000 0.020000 -0.232143
v 0.112857 -0.020000 -0.232143
v 0.112857 0.020000 -0.232143
v 0.096429 -0.020000 -0.101429
v 0.096429 0.020000 -0.101429
v 0.154286 -0.020000 -0.101429
v 0.154286 0.020000 -0.101429
v 0.154286 -0.020000 -0.060000
v 0.154286 0.020000 -0.060000
v 0.092143 -0.020000 -0.060000
v 0.092143 0.020000 -0.060000
v 0.078571 -0.020000 0.045714
v 0.078571 0.020000 0.045714
v 0.140000 -0.020000 0.045714
v 0.140000 0.020000 0.045714
v 0.140000 -0.020000 0.086429
v 0.140000 0.020000 0.086429
v 0.073571 -0.020000 0.086429
v 0.073571 0.020000 0.086429
v 0.056429 -0.020000 0.232143
v 0.056429 0.020000 0.232143
v 0.017857 -0.020000 0.232143
v 0.017857 0.020000 0.232143
v 0.035714 -0.020000 0.086429
v 0.035714 0.020000 0.086429
v -0.059286 -0.020000 0.086429
v -0.059286 0.020000 0.086429
v -0.076429 -0.020000 0.232143
v -0.076429 0.020000 0.232143
v -0.054286 -0.020000 0.045714
v -0.054286 0.020000 0.045714
v 0.040000 -0.020000 0.045714
v 0.040000 0.020000 0.045714
v 0.053571 -0.020000 -0.060000
v 0.053571 0.020000 -0.060000
v -0.041429 -0.020000 -0.060000
v -0.041429 0.020000 -0.060000
vn 0.0000 1.0000 0.0000
vn 0.0000 0.0000 1.0000
vn 0.0000 0.0000 -1.0000
vn 0.0000 -1.0000 -0.0000
vn -0.7472 0.0000 0.6645
vn -0.7071 0.0000 0.7071
vn -0.7071 0.0000 -0.7071
vn -0.6605 0.0000 -0.7508
vn -0.7508 0.0000 0.6605
vn -0.6595 0.0000 -0.7517
vn 0.7499 0.0000 -0.6615
vn 0.7071 0.0000 -0.7071
vn 0.7071 0.0000 0.7071
vn 0.6605 0.0000 0.7508
vn 0.7508 0.0000 -0.6605
vn 0.6645 0.0000 0.7472
vn -0.7489 0.0000 0.6627
vn 0.7486 0.0000 -0.6630
vn 0.6630 0.0000 0.7486
usemtl Material.001
s off
f 9//1 11//1 10//1
f 9//1 12//1 11//1
f 13//1 15//1 14//1
f 13//1 16//1 15//1
f 7//1 9//1 8//1
f 7//1 12//1 9//1
f 7//1 13//1 12//1
f 7//1 16//1 13//1
f 7//1 17//1 16//1
f 7//1 18//1 17//1
f 6//2 18//2 7//2
f 5//1 32//1 6//1
f 32//2 18//2 6//2
f 5//1 29//1 32//1
f 31//2 18//2 32//2
f 30//1 19//1 31//1
f 19//3 18//3 31//3
f 30//1 20//1 19//1
f 3//1 5//1 4//1
f 3//1 29//1 5//1
f 3//1 30//1 29//1
f 3//1 20//1 30//1
f 3//1 21//1 20//1
f 3//1 22//1 21//1
f 2//2 22//2 3//2
f 1//1 27//1 2//1
f 27//2 22//2 2//2
f 1//1 28//1 27//1
f 26//3 22//3 27//3
f 25//1 23//1 26//1
f 23//2 22//2 26//2
f 25//1 24//1 23//1
f 43//4 41//4 42//4
f 44//4 41//4 43//4
f 47//4 45//4 46//4
f 48//4 45//4 47//4
f 41//4 39//4 40//4
f 44//4 39//4 41//4
f 45//4 39//4 44//4
f 48//4 39//4 45//4
f 49//4 39//4 48//4
f 50//4 39//4 49//4
f 50//2 38//2 39//2
f 64//4 37//4 38//4
f 50//2 64//2 38//2
f 61//4 37//4 64//4
f 50//2 63//2 64//2
f 51//4 62//4 63//4
f 50//3 51//3 63//3
f 52//4 62//4 51//4
f 37//4 35//4 36//4
f 61//4 35//4 37//4
f 62//4 35//4 61//4
f 52//4 35//4 62//4
f 53//4 35//4 52//4
f 54//4 35//4 53//4
f 54//2 34//2 35//2
f 59//4 33//4 34//4
f 54//2 59//2 34//2
f 60//4 33//4 59//4
f 54//3 58//3 59//3
f 55//4 57//4 58//4
f 54//2 55//2 58//2
f 56//4 57//4 55//4
s 1
f 66//5 68//5 67//5 65//5
f 68//5 70//6 69//6 67//5
f 70//6 72//7 71//7 69//6
f 72//7 74//8 73//8 71//7
f 74//8 76//9 75//9 73//8
f 76//9 78//6 77//6 75//9
f 78//6 80//7 79//7 77//6
f 80//7 82//10 81//10 79//7
f 82//10 84//10 83//10 81//10
f 84//10 86//11 85//11 83//10
f 86//11 88//11 87//11 85//11
f 88//11 90//10 89//10 87//11
f 90//10 92//10 91//10 89//10
f 92//10 94//11 93//11 91//10
f 94//11 96//11 95//11 93//11
f 96//11 98//12 97//12 95//11
f 98//12 100//13 99//13 97//12
f 100//13 102//14 101//14 99//13
f 102//14 104//15 103//15 101//14
f 104//15 106//12 105//12 103//15
f 106//12 108//13 107//13 105//12
f 108//13 110//16 109//16 107//13
f 110//16 112//16 111//16 109//16
f 112//16 114//17 113//17 111//16
f 114//17 116//17 115//17 113//17
f 116//17 118//16 117//16 115//17
f 118//16 120//16 119//16 117//16
f 120//16 66//5 65//5 119//16
f 122//18 124//8 123//8 121//18
f 124//8 126//9 125//9 123//8
f 126//9 128//19 127//19 125//9
f 128//19 122//18 121//18 127//19
