# Blender v2.79 (sub 0) OBJ File: 'hashtag.blend'
# www.blender.org
mtllib hashtag.mtl
o Text
v -0.041381 0.000000 -0.125000
v -0.058962 0.000000 -0.055158
v -0.125000 0.000000 -0.055158
v -0.125000 0.000000 -0.030444
v -0.064966 0.000000 -0.030444
v -0.080403 0.000000 0.030444
v -0.125000 0.000000 0.030444
v -0.125000 0.000000 0.055158
v -0.086407 0.000000 0.055158
v -0.103988 0.000000 0.125000
v -0.073113 0.000000 0.125000
v -0.055532 0.000000 0.055158
v 0.027659 0.000000 0.055158
v 0.010077 0.000000 0.125000
v 0.040952 0.000000 0.125000
v 0.058533 0.000000 0.055158
v 0.125000 0.000000 0.055158
v 0.125000 0.000000 0.030444
v 0.064537 0.000000 0.030444
v 0.079974 0.000000 -0.030444
v 0.125000 0.000000 -0.030444
v 0.125000 0.000000 -0.055158
v 0.085978 0.000000 -0.055158
v 0.103559 0.000000 -0.125000
v 0.072684 0.000000 -0.125000
v 0.055103 0.000000 -0.055158
v -0.028087 0.000000 -0.055158
v -0.010506 0.000000 -0.125000
v -0.034091 0.000000 -0.030444
v 0.049099 0.000000 -0.030444
v 0.033662 0.000000 0.030444
v -0.049528 0.000000 0.030444
vn 0.0000 1.0000 0.0000
vn 0.0000 0.0000 1.0000
usemtl Material.001
s off
f 2//1 28//1 1//1
f 2//1 27//1 28//1
f 26//1 24//1 25//1
f 26//1 23//1 24//1
f 4//1 2//1 3//1
f 4//1 27//1 2//1
f 4//1 26//1 27//1
f 4//1 23//1 26//1
f 4//1 22//1 23//1
f 4//1 21//1 22//1
f 5//2 21//2 4//2
f 6//1 29//1 5//1
f 29//2 21//2 5//2
f 6//1 32//1 29//1
f 30//2 21//2 29//2
f 31//1 20//1 30//1
f 20//2 21//2 30//2
f 31//1 19//1 20//1
f 8//1 6//1 7//1
f 8//1 32//1 6//1
f 8//1 31//1 32//1
f 8//1 19//1 31//1
f 8//1 18//1 19//1
f 8//1 17//1 18//1
f 9//2 17//2 8//2
f 10//1 12//1 9//1
f 12//2 17//2 9//2
f 10//1 11//1 12//1
f 13//2 17//2 12//2
f 14//1 16//1 13//1
f 16//2 17//2 13//2
f 14//1 15//1 16//1
