# Blender v2.79 (sub 0) OBJ File: '#.blend'
# www.blender.org
mtllib hashtag.mtl
o Text
v -0.096500 0.000000 -0.349000
v -0.137500 0.000000 -0.154000
v -0.291500 0.000000 -0.154000
v -0.291500 0.000000 -0.085000
v -0.151500 0.000000 -0.085000
v -0.187500 0.000000 0.085000
v -0.291500 0.000000 0.085000
v -0.291500 0.000000 0.154000
v -0.201500 0.000000 0.154000
v -0.242500 0.000000 0.349000
v -0.170500 0.000000 0.349000
v -0.129500 0.000000 0.154000
v 0.064500 0.000000 0.154000
v 0.023500 0.000000 0.349000
v 0.095500 0.000000 0.349000
v 0.136500 0.000000 0.154000
v 0.291500 0.000000 0.154000
v 0.291500 0.000000 0.085000
v 0.150500 0.000000 0.085000
v 0.186500 0.000000 -0.085000
v 0.291500 0.000000 -0.085000
v 0.291500 0.000000 -0.154000
v 0.200500 0.000000 -0.154000
v 0.241500 0.000000 -0.349000
v 0.169500 0.000000 -0.349000
v 0.128500 0.000000 -0.154000
v -0.065500 0.000000 -0.154000
v -0.024500 0.000000 -0.349000
v -0.079500 0.000000 -0.085000
v 0.114500 0.000000 -0.085000
v 0.078500 0.000000 0.085000
v -0.115500 0.000000 0.085000
vn 0.0000 1.0000 0.0000
vn 0.0000 0.0000 1.0000
usemtl Material.001
s off
f 2//1 28//1 1//1
f 2//1 27//1 28//1
f 26//1 24//1 25//1
f 26//1 23//1 24//1
f 4//1 2//1 3//1
f 4//1 27//1 2//1
f 4//1 26//1 27//1
f 4//1 23//1 26//1
f 4//1 22//1 23//1
f 4//1 21//1 22//1
f 5//2 21//2 4//2
f 6//1 29//1 5//1
f 29//2 21//2 5//2
f 6//1 32//1 29//1
f 30//2 21//2 29//2
f 31//1 20//1 30//1
f 20//2 21//2 30//2
f 31//1 19//1 20//1
f 8//1 6//1 7//1
f 8//1 32//1 6//1
f 8//1 31//1 32//1
f 8//1 19//1 31//1
f 8//1 18//1 19//1
f 8//1 17//1 18//1
f 9//2 17//2 8//2
f 10//1 12//1 9//1
f 12//2 17//2 9//2
f 10//1 11//1 12//1
f 13//2 17//2 12//2
f 14//1 16//1 13//1
f 16//2 17//2 13//2
f 14//1 15//1 16//1
