# Blender v2.79 (sub 0) OBJ File: 'hashtag.blend'
# www.blender.org
mtllib hashtag.mtl
o Text
v -0.065500 0.020000 -0.154000
v 0.128500 0.020000 -0.154000
v 0.169500 0.020000 -0.349000
v 0.241500 0.020000 -0.349000
v 0.200500 0.020000 -0.154000
v 0.291500 0.020000 -0.154000
v 0.291500 0.020000 -0.085000
v 0.186500 0.020000 -0.085000
v 0.150500 0.020000 0.085000
v 0.291500 0.020000 0.085000
v 0.291500 0.020000 0.154000
v 0.136500 0.020000 0.154000
v 0.095500 0.020000 0.349000
v 0.023500 0.020000 0.349000
v 0.064500 0.020000 0.154000
v -0.129500 0.020000 0.154000
v -0.170500 0.020000 0.349000
v -0.242500 0.020000 0.349000
v -0.201500 0.020000 0.154000
v -0.291500 0.020000 0.154000
v -0.291500 0.020000 0.085000
v -0.187500 0.020000 0.085000
v -0.151500 0.020000 -0.085000
v -0.291500 0.020000 -0.085000
v -0.291500 0.020000 -0.154000
v -0.137500 0.020000 -0.154000
v -0.096500 0.020000 -0.349000
v -0.024500 0.020000 -0.349000
v 0.078500 0.020000 0.085000
v 0.114500 0.020000 -0.085000
v -0.079500 0.020000 -0.085000
v -0.115500 0.020000 0.085000
v -0.065500 -0.020000 -0.154000
v 0.128500 -0.020000 -0.154000
v 0.169500 -0.020000 -0.349000
v 0.241500 -0.020000 -0.349000
v 0.200500 -0.020000 -0.154000
v 0.291500 -0.020000 -0.154000
v 0.291500 -0.020000 -0.085000
v 0.186500 -0.020000 -0.085000
v 0.150500 -0.020000 0.085000
v 0.291500 -0.020000 0.085000
v 0.291500 -0.020000 0.154000
v 0.136500 -0.020000 0.154000
v 0.095500 -0.020000 0.349000
v 0.023500 -0.020000 0.349000
v 0.064500 -0.020000 0.154000
v -0.129500 -0.020000 0.154000
v -0.170500 -0.020000 0.349000
v -0.242500 -0.020000 0.349000
v -0.201500 -0.020000 0.154000
v -0.291500 -0.020000 0.154000
v -0.291500 -0.020000 0.085000
v -0.187500 -0.020000 0.085000
v -0.151500 -0.020000 -0.085000
v -0.291500 -0.020000 -0.085000
v -0.291500 -0.020000 -0.154000
v -0.137500 -0.020000 -0.154000
v -0.096500 -0.020000 -0.349000
v -0.024500 -0.020000 -0.349000
v 0.078500 -0.020000 0.085000
v 0.114500 -0.020000 -0.085000
v -0.079500 -0.020000 -0.085000
v -0.115500 -0.020000 0.085000
v -0.065500 -0.020000 -0.154000
v -0.065500 0.020000 -0.154000
v 0.128500 -0.020000 -0.154000
v 0.128500 0.020000 -0.154000
v 0.169500 -0.020000 -0.349000
v 0.169500 0.020000 -0.349000
v 0.241500 -0.020000 -0.349000
v 0.241500 0.020000 -0.349000
v 0.200500 -0.020000 -0.154000
v 0.200500 0.020000 -0.154000
v 0.291500 -0.020000 -0.154000
v 0.291500 0.020000 -0.154000
v 0.291500 -0.020000 -0.085000
v 0.291500 0.020000 -0.085000
v 0.186500 -0.020000 -0.085000
v 0.186500 0.020000 -0.085000
v 0.150500 -0.020000 0.085000
v 0.150500 0.020000 0.085000
v 0.291500 -0.020000 0.085000
v 0.291500 0.020000 0.085000
v 0.291500 -0.020000 0.154000
v 0.291500 0.020000 0.154000
v 0.136500 -0.020000 0.154000
v 0.136500 0.020000 0.154000
v 0.095500 -0.020000 0.349000
v 0.095500 0.020000 0.349000
v 0.023500 -0.020000 0.349000
v 0.023500 0.020000 0.349000
v 0.064500 -0.020000 0.154000
v 0.064500 0.020000 0.154000
v -0.129500 -0.020000 0.154000
v -0.129500 0.020000 0.154000
v -0.170500 -0.020000 0.349000
v -0.170500 0.020000 0.349000
v -0.242500 -0.020000 0.349000
v -0.242500 0.020000 0.349000
v -0.201500 -0.020000 0.154000
v -0.201500 0.020000 0.154000
v -0.291500 -0.020000 0.154000
v -0.291500 0.020000 0.154000
v -0.291500 -0.020000 0.085000
v -0.291500 0.020000 0.085000
v -0.187500 -0.020000 0.085000
v -0.187500 0.020000 0.085000
v -0.151500 -0.020000 -0.085000
v -0.151500 0.020000 -0.085000
v -0.291500 -0.020000 -0.085000
v -0.291500 0.020000 -0.085000
v -0.291500 -0.020000 -0.154000
v -0.291500 0.020000 -0.154000
v -0.137500 -0.020000 -0.154000
v -0.137500 0.020000 -0.154000
v -0.096500 -0.020000 -0.349000
v -0.096500 0.020000 -0.349000
v -0.024500 -0.020000 -0.349000
v -0.024500 0.020000 -0.349000
v 0.078500 -0.020000 0.085000
v 0.078500 0.020000 0.085000
v 0.114500 -0.020000 -0.085000
v 0.114500 0.020000 -0.085000
v -0.079500 -0.020000 -0.085000
v -0.079500 0.020000 -0.085000
v -0.115500 -0.020000 0.085000
v -0.115500 0.020000 0.085000
vn 0.0000 1.0000 0.0000
vn 0.0000 0.0000 1.0000
vn 0.0000 0.0000 -1.0000
vn 0.0000 -1.0000 0.0000
vn 0.7765 0.0000 -0.6301
vn -0.6301 0.0000 -0.7765
vn 0.7071 0.0000 -0.7071
vn 0.7071 0.0000 0.7071
vn 0.6296 0.0000 0.7769
vn 0.7769 0.0000 -0.6296
vn 0.6301 0.0000 0.7765
vn -0.7765 0.0000 0.6301
vn -0.7071 0.0000 0.7071
vn -0.7071 0.0000 -0.7071
vn -0.6296 0.0000 -0.7769
vn -0.7769 0.0000 0.6296
usemtl Material.001
s off
f 26//1 28//1 27//1
f 26//1 1//1 28//1
f 2//1 4//1 3//1
f 2//1 5//1 4//1
f 24//1 26//1 25//1
f 24//1 1//1 26//1
f 24//1 2//1 1//1
f 24//1 5//1 2//1
f 24//1 6//1 5//1
f 24//1 7//1 6//1
f 23//2 7//2 24//2
f 22//1 31//1 23//1
f 31//3 7//3 23//3
f 22//1 32//1 31//1
f 30//2 7//2 31//2
f 29//1 8//1 30//1
f 8//2 7//2 30//2
f 29//1 9//1 8//1
f 20//1 22//1 21//1
f 20//1 32//1 22//1
f 20//1 29//1 32//1
f 20//1 9//1 29//1
f 20//1 10//1 9//1
f 20//1 11//1 10//1
f 19//2 11//2 20//2
f 18//1 16//1 19//1
f 16//2 11//2 19//2
f 18//1 17//1 16//1
f 15//2 11//2 16//2
f 14//1 12//1 15//1
f 12//2 11//2 15//2
f 14//1 13//1 12//1
f 60//4 58//4 59//4
f 33//4 58//4 60//4
f 36//4 34//4 35//4
f 37//4 34//4 36//4
f 58//4 56//4 57//4
f 33//4 56//4 58//4
f 34//4 56//4 33//4
f 37//4 56//4 34//4
f 38//4 56//4 37//4
f 39//4 56//4 38//4
f 39//2 55//2 56//2
f 63//4 54//4 55//4
f 39//3 63//3 55//3
f 64//4 54//4 63//4
f 39//2 62//2 63//2
f 40//4 61//4 62//4
f 39//2 40//2 62//2
f 41//4 61//4 40//4
f 54//4 52//4 53//4
f 64//4 52//4 54//4
f 61//4 52//4 64//4
f 41//4 52//4 61//4
f 42//4 52//4 41//4
f 43//4 52//4 42//4
f 43//2 51//2 52//2
f 48//4 50//4 51//4
f 43//3 48//3 51//3
f 49//4 50//4 48//4
f 43//3 47//3 48//3
f 44//4 46//4 47//4
f 43//2 44//2 47//2
f 45//4 46//4 44//4
s 1
f 66//5 68//6 67//6 65//5
f 68//6 70//6 69//6 67//6
f 70//6 72//5 71//5 69//6
f 72//5 74//5 73//5 71//5
f 74//5 76//7 75//7 73//5
f 76//7 78//8 77//8 75//7
f 78//8 80//9 79//9 77//8
f 80//9 82//10 81//10 79//9
f 82//10 84//7 83//7 81//10
f 84//7 86//8 85//8 83//7
f 86//8 88//11 87//11 85//8
f 88//11 90//11 89//11 87//11
f 90//11 92//12 91//12 89//11
f 92//12 94//12 93//12 91//12
f 94//12 96//11 95//11 93//12
f 96//11 98//11 97//11 95//11
f 98//11 100//12 99//12 97//11
f 100//12 102//12 101//12 99//12
f 102//12 104//13 103//13 101//12
f 104//13 106//14 105//14 103//13
f 106//14 108//15 107//15 105//14
f 108//15 110//16 109//16 107//15
f 110//16 112//13 111//13 109//16
f 112//13 114//14 113//14 111//13
f 114//14 116//6 115//6 113//14
f 116//6 118//6 117//6 115//6
f 118//6 120//5 119//5 117//6
f 120//5 66//5 65//5 119//5
f 122//15 124//16 123//16 121//15
f 124//16 126//9 125//9 123//16
f 126//9 128//10 127//10 125//9
f 128//10 122//15 121//15 127//10
