# Blender v2.79 (sub 0) OBJ File: 'hashtag.blend'
# www.blender.org
mtllib hashtag.mtl
o Text_CUText
v -0.298148 0.050000 0.500000
v -0.253704 0.050000 0.186154
v -0.400000 0.050000 0.186154
v -0.400000 0.050000 0.098462
v -0.240741 0.050000 0.098462
v -0.205556 0.050000 -0.129231
v -0.362963 0.050000 -0.129231
v -0.362963 0.050000 -0.218462
v -0.194444 0.050000 -0.218462
v -0.150000 0.050000 -0.500000
v -0.051852 0.050000 -0.500000
v -0.094444 0.050000 -0.218462
v 0.150000 0.050000 -0.218462
v 0.194444 0.050000 -0.500000
v 0.292593 0.050000 -0.500000
v 0.250000 0.050000 -0.218462
v 0.400000 0.050000 -0.218462
v 0.400000 0.050000 -0.129231
v 0.238889 0.050000 -0.129231
v 0.203704 0.050000 0.098462
v 0.362963 0.050000 0.098462
v 0.362963 0.050000 0.186154
v 0.190741 0.050000 0.186154
v 0.146296 0.050000 0.500000
v 0.046296 0.050000 0.500000
v 0.092593 0.050000 0.186154
v -0.153704 0.050000 0.186154
v -0.198148 0.050000 0.500000
v -0.140741 0.050000 0.098462
v 0.103704 0.050000 0.098462
v 0.138889 0.050000 -0.129231
v -0.107407 0.050000 -0.129231
v -0.298148 -0.050000 0.500000
v -0.253704 -0.050000 0.186154
v -0.400000 -0.050000 0.186154
v -0.400000 -0.050000 0.098462
v -0.240741 -0.050000 0.098462
v -0.205556 -0.050000 -0.129231
v -0.362963 -0.050000 -0.129231
v -0.362963 -0.050000 -0.218462
v -0.194444 -0.050000 -0.218462
v -0.150000 -0.050000 -0.500000
v -0.051852 -0.050000 -0.500000
v -0.094444 -0.050000 -0.218462
v 0.150000 -0.050000 -0.218462
v 0.194444 -0.050000 -0.500000
v 0.292593 -0.050000 -0.500000
v 0.250000 -0.050000 -0.218462
v 0.400000 -0.050000 -0.218462
v 0.400000 -0.050000 -0.129231
v 0.238889 -0.050000 -0.129231
v 0.203704 -0.050000 0.098462
v 0.362963 -0.050000 0.098462
v 0.362963 -0.050000 0.186154
v 0.190741 -0.050000 0.186154
v 0.146296 -0.050000 0.500000
v 0.046296 -0.050000 0.500000
v 0.092593 -0.050000 0.186154
v -0.153704 -0.050000 0.186154
v -0.198148 -0.050000 0.500000
v -0.140741 -0.050000 0.098462
v 0.103704 -0.050000 0.098462
v 0.138889 -0.050000 -0.129231
v -0.107407 -0.050000 -0.129231
v -0.298148 -0.050000 0.500000
v -0.298148 0.050000 0.500000
v -0.253704 -0.050000 0.186154
v -0.253704 0.050000 0.186154
v -0.400000 -0.050000 0.186154
v -0.400000 0.050000 0.186154
v -0.400000 -0.050000 0.098462
v -0.400000 0.050000 0.098462
v -0.240741 -0.050000 0.098462
v -0.240741 0.050000 0.098462
v -0.205556 -0.050000 -0.129231
v -0.205556 0.050000 -0.129231
v -0.362963 -0.050000 -0.129231
v -0.362963 0.050000 -0.129231
v -0.362963 -0.050000 -0.218462
v -0.362963 0.050000 -0.218462
v -0.194444 -0.050000 -0.218462
v -0.194444 0.050000 -0.218462
v -0.150000 -0.050000 -0.500000
v -0.150000 0.050000 -0.500000
v -0.051852 -0.050000 -0.500000
v -0.051852 0.050000 -0.500000
v -0.094444 -0.050000 -0.218462
v -0.094444 0.050000 -0.218462
v 0.150000 -0.050000 -0.218462
v 0.150000 0.050000 -0.218462
v 0.194444 -0.050000 -0.500000
v 0.194444 0.050000 -0.500000
v 0.292593 -0.050000 -0.500000
v 0.292593 0.050000 -0.500000
v 0.250000 -0.050000 -0.218462
v 0.250000 0.050000 -0.218462
v 0.400000 -0.050000 -0.218462
v 0.400000 0.050000 -0.218462
v 0.400000 -0.050000 -0.129231
v 0.400000 0.050000 -0.129231
v 0.238889 -0.050000 -0.129231
v 0.238889 0.050000 -0.129231
v 0.203704 -0.050000 0.098462
v 0.203704 0.050000 0.098462
v 0.362963 -0.050000 0.098462
v 0.362963 0.050000 0.098462
v 0.362963 -0.050000 0.186154
v 0.362963 0.050000 0.186154
v 0.190741 -0.050000 0.186154
v 0.190741 0.050000 0.186154
v 0.146296 -0.050000 0.500000
v 0.146296 0.050000 0.500000
v 0.046296 -0.050000 0.500000
v 0.046296 0.050000 0.500000
v 0.092593 -0.050000 0.186154
v 0.092593 0.050000 0.186154
v -0.153704 -0.050000 0.186154
v -0.153704 0.050000 0.186154
v -0.198148 -0.050000 0.500000
v -0.198148 0.050000 0.500000
v -0.140741 -0.050000 0.098462
v -0.140741 0.050000 0.098462
v 0.103704 -0.050000 0.098462
v 0.103704 0.050000 0.098462
v 0.138889 -0.050000 -0.129231
v 0.138889 0.050000 -0.129231
v -0.107407 -0.050000 -0.129231
v -0.107407 0.050000 -0.129231
vt 0.000000 0.000000
vt 1.000000 0.000000
vt 1.000000 1.000000
vt 1.000000 0.000000
vt 1.000000 1.000000
vt 0.000000 0.000000
vt 1.000000 0.000000
vt 1.000000 1.000000
vt 1.000000 0.000000
vt 1.000000 1.000000
vt 0.000000 0.000000
vt 1.000000 0.000000
vt 1.000000 1.000000
vt 1.000000 1.000000
vt 1.000000 0.000000
vt 1.000000 1.000000
vt 1.000000 1.000000
vt 1.000000 0.000000
vt 1.000000 1.000000
vt 1.000000 0.000000
vt 1.000000 1.000000
vt 0.000000 0.000000
vt 1.000000 1.000000
vt 0.000000 0.000000
vt 1.000000 0.000000
vt 1.000000 1.000000
vt 0.000000 0.000000
vt 1.000000 0.000000
vt 1.000000 1.000000
vt 0.000000 0.000000
vt 0.000000 0.000000
vt 1.000000 0.000000
vt 1.000000 1.000000
vt 0.000000 0.000000
vt 1.000000 0.000000
vt 1.000000 1.000000
vt 0.000000 0.000000
vt 1.000000 0.000000
vt 1.000000 1.000000
vt 1.000000 1.000000
vt 1.000000 0.000000
vt 1.000000 1.000000
vt 1.000000 1.000000
vt 1.000000 0.000000
vt 1.000000 1.000000
vt 1.000000 0.000000
vt 1.000000 1.000000
vt 0.000000 0.000000
vt 1.000000 1.000000
vt 0.000000 0.000000
vt 1.000000 0.000000
vt 1.000000 1.000000
vt 0.000000 0.000000
vt 1.000000 0.000000
vt 1.000000 1.000000
vt 0.000000 0.000000
vt 0.000000 0.000000
vt 1.000000 0.000000
vt 1.000000 1.000000
vt 0.000000 0.000000
vt 1.000000 0.000000
vt 1.000000 1.000000
vt 0.000000 0.000000
vt 1.000000 0.000000
vt 1.000000 1.000000
vt 0.000000 0.000000
vt 1.000000 1.000000
vt 0.000000 0.000000
vt 1.000000 0.000000
vt 1.000000 1.000000
vt 0.000000 0.000000
vt 1.000000 1.000000
vt 0.000000 0.000000
vt 1.000000 0.000000
vt 1.000000 1.000000
vt 1.000000 1.000000
vt 0.000000 0.000000
vt 1.000000 1.000000
vt 1.000000 1.000000
vt 0.000000 0.000000
vt 1.000000 1.000000
vt 0.000000 0.000000
vt 1.000000 1.000000
vt 1.000000 0.000000
vt 1.000000 1.000000
vt 0.000000 0.000000
vt 1.000000 0.000000
vt 1.000000 1.000000
vt 1.000000 0.000000
vt 0.000000 0.000000
vt 1.000000 1.000000
vt 1.000000 0.000000
vt 0.000000 0.000000
vt 1.000000 0.000000
vt 1.000000 1.000000
vt 1.000000 0.000000
vt 0.000000 0.000000
vt 1.000000 1.000000
vt 0.000000 0.000000
vt 1.000000 0.000000
vt 1.000000 1.000000
vt 1.000000 1.000000
vt 0.000000 0.000000
vt 1.000000 1.000000
vt 1.000000 1.000000
vt 0.000000 0.000000
vt 1.000000 1.000000
vt 0.000000 0.000000
vt 1.000000 1.000000
vt 1.000000 0.000000
vt 1.000000 1.000000
vt 0.000000 0.000000
vt 1.000000 0.000000
vt 1.000000 1.000000
vt 1.000000 0.000000
vt 0.000000 0.000000
vt 1.000000 1.000000
vt 1.000000 0.000000
vt 0.000000 0.000000
vt 1.000000 0.000000
vt 1.000000 1.000000
vt 1.000000 0.000000
vt 0.000000 0.000000
vt 1.000000 1.000000
vt 0.000000 0.000000
vt 1.000000 0.000000
vt 1.000000 1.000000
vt 0.000000 1.000000
vt 0.000000 0.000000
vt 1.000000 0.000000
vt 1.000000 1.000000
vt 0.000000 1.000000
vt 0.000000 0.000000
vt 1.000000 0.000000
vt 1.000000 1.000000
vt 0.000000 1.000000
vt 0.000000 0.000000
vt 1.000000 0.000000
vt 1.000000 1.000000
vt 0.000000 1.000000
vt 0.000000 0.000000
vt 1.000000 0.000000
vt 1.000000 1.000000
vt 0.000000 1.000000
vt 0.000000 0.000000
vt 1.000000 0.000000
vt 1.000000 1.000000
vt 0.000000 1.000000
vt 0.000000 0.000000
vt 1.000000 0.000000
vt 1.000000 1.000000
vt 0.000000 1.000000
vt 0.000000 0.000000
vt 1.000000 0.000000
vt 1.000000 1.000000
vt 0.000000 1.000000
vt 0.000000 0.000000
vt 1.000000 0.000000
vt 1.000000 1.000000
vt 0.000000 1.000000
vt 0.000000 0.000000
vt 1.000000 0.000000
vt 1.000000 1.000000
vt 0.000000 1.000000
vt 0.000000 0.000000
vt 1.000000 0.000000
vt 1.000000 1.000000
vt 0.000000 1.000000
vt 0.000000 0.000000
vt 1.000000 0.000000
vt 1.000000 1.000000
vt 0.000000 1.000000
vt 0.000000 0.000000
vt 1.000000 0.000000
vt 1.000000 1.000000
vt 0.000000 1.000000
vt 0.000000 0.000000
vt 1.000000 0.000000
vt 1.000000 1.000000
vt 0.000000 1.000000
vt 0.000000 0.000000
vt 1.000000 0.000000
vt 1.000000 1.000000
vt 0.000000 1.000000
vt 0.000000 0.000000
vt 1.000000 0.000000
vt 1.000000 1.000000
vt 0.000000 1.000000
vt 0.000000 0.000000
vt 1.000000 0.000000
vt 1.000000 1.000000
vt 0.000000 1.000000
vt 0.000000 0.000000
vt 1.000000 0.000000
vt 1.000000 1.000000
vt 0.000000 1.000000
vt 0.000000 0.000000
vt 1.000000 0.000000
vt 1.000000 1.000000
vt 0.000000 1.000000
vt 0.000000 0.000000
vt 1.000000 0.000000
vt 1.000000 1.000000
vt 0.000000 1.000000
vt 0.000000 0.000000
vt 1.000000 0.000000
vt 1.000000 1.000000
vt 0.000000 1.000000
vt 0.000000 0.000000
vt 1.000000 0.000000
vt 1.000000 1.000000
vt 0.000000 1.000000
vt 0.000000 0.000000
vt 1.000000 0.000000
vt 1.000000 1.000000
vt 0.000000 1.000000
vt 0.000000 0.000000
vt 1.000000 0.000000
vt 1.000000 1.000000
vt 0.000000 1.000000
vt 0.000000 0.000000
vt 1.000000 0.000000
vt 1.000000 1.000000
vt 0.000000 1.000000
vt 0.000000 0.000000
vt 1.000000 0.000000
vt 1.000000 1.000000
vt 0.000000 1.000000
vt 0.000000 0.000000
vt 1.000000 0.000000
vt 1.000000 1.000000
vt 0.000000 1.000000
vt 0.000000 0.000000
vt 1.000000 0.000000
vt 1.000000 1.000000
vt 0.000000 1.000000
vt 0.000000 0.000000
vt 1.000000 0.000000
vt 1.000000 1.000000
vt 0.000000 1.000000
vt 0.000000 0.000000
vt 1.000000 0.000000
vt 1.000000 1.000000
vt 0.000000 1.000000
vt 0.000000 0.000000
vt 1.000000 0.000000
vt 1.000000 1.000000
vt 0.000000 1.000000
vt 0.000000 0.000000
vt 1.000000 0.000000
vt 1.000000 1.000000
vt 0.000000 1.000000
vn 0.0000 1.0000 -0.0000
vn 0.0000 0.0000 -1.0000
vn 0.0000 0.0000 1.0000
vn 0.0000 -1.0000 -0.0000
vn -0.7550 0.0000 0.6557
vn -0.7071 0.0000 0.7071
vn -0.7071 0.0000 -0.7071
vn -0.6509 0.0000 -0.7592
vn -0.7592 0.0000 0.6509
vn -0.6496 0.0000 -0.7602
vn 0.7581 0.0000 -0.6521
vn 0.7071 0.0000 -0.7071
vn 0.7071 0.0000 0.7071
vn 0.6509 0.0000 0.7592
vn 0.7592 0.0000 -0.6509
vn 0.6557 0.0000 0.7550
vn -0.7569 0.0000 0.6535
vn 0.7566 0.0000 -0.6539
vn 0.6539 0.0000 0.7566
usemtl Material.001
s off
f 9/1/1 11/2/1 10/3/1
f 9/1/1 12/4/1 11/5/1
f 13/6/1 15/7/1 14/8/1
f 13/6/1 16/9/1 15/10/1
f 7/11/1 9/12/1 8/13/1
f 7/11/1 12/4/1 9/14/1
f 7/11/1 13/15/1 12/16/1
f 7/11/1 16/9/1 13/17/1
f 7/11/1 17/18/1 16/19/1
f 7/11/1 18/20/1 17/21/1
f 6/22/2 18/20/2 7/23/2
f 5/24/1 32/25/1 6/26/1
f 32/27/2 18/20/2 6/26/2
f 5/24/1 29/28/1 32/29/1
f 31/30/3 18/20/3 32/29/3
f 30/31/1 19/32/1 31/33/1
f 19/34/3 18/20/3 31/33/3
f 30/31/1 20/35/1 19/36/1
f 3/37/1 5/38/1 4/39/1
f 3/37/1 29/28/1 5/40/1
f 3/37/1 30/41/1 29/42/1
f 3/37/1 20/35/1 30/43/1
f 3/37/1 21/44/1 20/45/1
f 3/37/1 22/46/1 21/47/1
f 2/48/2 22/46/2 3/49/2
f 1/50/1 27/51/1 2/52/1
f 27/53/3 22/46/3 2/52/3
f 1/50/1 28/54/1 27/55/1
f 26/56/3 22/46/3 27/55/3
f 25/57/1 23/58/1 26/59/1
f 23/60/3 22/46/3 26/59/3
f 25/57/1 24/61/1 23/62/1
f 43/63/4 41/64/4 42/65/4
f 44/66/4 41/64/4 43/67/4
f 47/68/4 45/69/4 46/70/4
f 48/71/4 45/69/4 47/72/4
f 41/73/4 39/74/4 40/75/4
f 44/66/4 39/74/4 41/76/4
f 45/77/4 39/74/4 44/78/4
f 48/71/4 39/74/4 45/79/4
f 49/80/4 39/74/4 48/81/4
f 50/82/4 39/74/4 49/83/4
f 50/82/2 38/84/2 39/85/2
f 64/86/4 37/87/4 38/88/4
f 50/82/2 64/89/2 38/88/2
f 61/90/4 37/87/4 64/91/4
f 50/82/3 63/92/3 64/91/3
f 51/93/4 62/94/4 63/95/4
f 50/82/3 51/96/3 63/95/3
f 52/97/4 62/94/4 51/98/4
f 37/99/4 35/100/4 36/101/4
f 61/90/4 35/100/4 37/102/4
f 62/103/4 35/100/4 61/104/4
f 52/97/4 35/100/4 62/105/4
f 53/106/4 35/100/4 52/107/4
f 54/108/4 35/100/4 53/109/4
f 54/108/2 34/110/2 35/111/2
f 59/112/4 33/113/4 34/114/4
f 54/108/3 59/115/3 34/114/3
f 60/116/4 33/113/4 59/117/4
f 54/108/3 58/118/3 59/117/3
f 55/119/4 57/120/4 58/121/4
f 54/108/2 55/122/2 58/121/2
f 56/123/4 57/120/4 55/124/4
s 1
f 66/125/5 68/126/5 67/127/5 65/128/5
f 68/129/5 70/130/6 69/131/6 67/132/5
f 70/133/6 72/134/7 71/135/7 69/136/6
f 72/137/7 74/138/8 73/139/8 71/140/7
f 74/141/8 76/142/9 75/143/9 73/144/8
f 76/145/9 78/146/6 77/147/6 75/148/9
f 78/149/6 80/150/7 79/151/7 77/152/6
f 80/153/7 82/154/10 81/155/10 79/156/7
f 82/157/10 84/158/10 83/159/10 81/160/10
f 84/161/10 86/162/11 85/163/11 83/164/10
f 86/165/11 88/166/11 87/167/11 85/168/11
f 88/169/11 90/170/10 89/171/10 87/172/11
f 90/173/10 92/174/10 91/175/10 89/176/10
f 92/177/10 94/178/11 93/179/11 91/180/10
f 94/181/11 96/182/11 95/183/11 93/184/11
f 96/185/11 98/186/12 97/187/12 95/188/11
f 98/189/12 100/190/13 99/191/13 97/192/12
f 100/193/13 102/194/14 101/195/14 99/196/13
f 102/197/14 104/198/15 103/199/15 101/200/14
f 104/201/15 106/202/12 105/203/12 103/204/15
f 106/205/12 108/206/13 107/207/13 105/208/12
f 108/209/13 110/210/16 109/211/16 107/212/13
f 110/213/16 112/214/16 111/215/16 109/216/16
f 112/217/16 114/218/17 113/219/17 111/220/16
f 114/221/17 116/222/17 115/223/17 113/224/17
f 116/225/17 118/226/16 117/227/16 115/228/17
f 118/229/16 120/230/16 119/231/16 117/232/16
f 120/233/16 66/234/5 65/235/5 119/236/16
f 122/237/18 124/238/8 123/239/8 121/240/18
f 124/241/8 126/242/9 125/243/9 123/244/8
f 126/245/9 128/246/19 127/247/19 125/248/9
f 128/249/19 122/250/18 121/251/18 127/252/19
