# Blender v2.79 (sub 0) OBJ File: 'O.blend'
# www.blender.org
mtllib O.mtl
o Text
v -0.500000 0.000000 0.000000
v -0.496039 -0.065356 -0.000000
v -0.484343 -0.128803 -0.000000
v -0.465190 -0.189621 -0.000000
v -0.438861 -0.247090 -0.000000
v -0.405635 -0.300492 -0.000000
v -0.365791 -0.349107 -0.000000
v -0.319609 -0.392216 -0.000000
v -0.267369 -0.429100 -0.000000
v -0.209349 -0.459040 -0.000000
v -0.145830 -0.481316 -0.000000
v -0.077091 -0.495209 -0.000000
v -0.003411 -0.500000 -0.000000
v 0.072696 -0.495182 -0.000000
v 0.143304 -0.481217 -0.000000
v 0.208198 -0.458839 -0.000000
v 0.267167 -0.428783 -0.000000
v 0.319996 -0.391782 -0.000000
v 0.366473 -0.348571 -0.000000
v 0.406385 -0.299884 -0.000000
v 0.439518 -0.246455 -0.000000
v 0.465659 -0.189018 -0.000000
v 0.484595 -0.128307 -0.000000
v 0.496113 -0.065056 -0.000000
v 0.500000 0.000000 0.000000
v 0.496011 0.066857 0.000000
v 0.484229 0.131283 0.000000
v 0.464934 0.192634 0.000000
v 0.438406 0.250265 0.000000
v 0.404924 0.303530 0.000000
v 0.364768 0.351786 0.000000
v 0.318217 0.394387 0.000000
v 0.265550 0.430688 0.000000
v 0.207047 0.460045 0.000000
v 0.142988 0.481812 0.000000
v 0.073652 0.495346 0.000000
v -0.000682 0.500000 0.000000
v -0.073843 0.495318 0.000000
v -0.142356 0.481713 0.000000
v -0.205896 0.459844 0.000000
v -0.264135 0.430370 0.000000
v -0.316747 0.393953 0.000000
v -0.363404 0.351250 0.000000
v -0.403780 0.302922 0.000000
v -0.437547 0.249630 0.000000
v -0.464380 0.192031 0.000000
v -0.483951 0.130787 0.000000
v -0.495933 0.066557 0.000000
v -0.362210 0.000000 0.000000
v -0.359057 0.052323 0.000000
v -0.349831 0.101918 0.000000
v -0.334882 0.148438 0.000000
v -0.314562 0.191534 0.000000
v -0.289221 0.230861 0.000000
v -0.259209 0.266071 0.000000
v -0.224876 0.296817 0.000000
v -0.186575 0.322751 0.000000
v -0.144654 0.343527 0.000000
v -0.099464 0.358796 0.000000
v -0.051357 0.368213 0.000000
v -0.000682 0.371429 0.000000
v 0.050306 0.368213 0.000000
v 0.098675 0.358796 0.000000
v 0.144078 0.343527 0.000000
v 0.186170 0.322751 0.000000
v 0.224606 0.296817 0.000000
v 0.259038 0.266071 0.000000
v 0.289122 0.230861 0.000000
v 0.314512 0.191534 0.000000
v 0.334861 0.148438 0.000000
v 0.349824 0.101918 0.000000
v 0.359056 0.052323 0.000000
v 0.362210 0.000000 0.000000
v 0.359056 -0.052023 -0.000000
v 0.349824 -0.101422 -0.000000
v 0.334861 -0.147835 -0.000000
v 0.314512 -0.190899 -0.000000
v 0.289122 -0.230254 -0.000000
v 0.259038 -0.265536 -0.000000
v 0.224606 -0.296383 -0.000000
v 0.186170 -0.322434 -0.000000
v 0.144078 -0.343326 -0.000000
v 0.098675 -0.358697 -0.000000
v 0.050306 -0.368185 -0.000000
v -0.000682 -0.371429 -0.000000
v -0.051357 -0.368185 -0.000000
v -0.099464 -0.358697 -0.000000
v -0.144654 -0.343326 -0.000000
v -0.186575 -0.322434 -0.000000
v -0.224877 -0.296383 -0.000000
v -0.259209 -0.265536 -0.000000
v -0.289221 -0.230254 -0.000000
v -0.314562 -0.190900 -0.000000
v -0.334882 -0.147835 -0.000000
v -0.349831 -0.101422 -0.000000
v -0.359057 -0.052023 -0.000000
vn 0.0000 -0.0000 1.0000
usemtl Material.001
s off
f 38//1 36//1 37//1
f 38//1 35//1 36//1
f 39//1 35//1 38//1
f 39//1 34//1 35//1
f 40//1 34//1 39//1
f 40//1 33//1 34//1
f 41//1 33//1 40//1
f 41//1 32//1 33//1
f 42//1 32//1 41//1
f 42//1 31//1 32//1
f 43//1 61//1 42//1
f 61//1 31//1 42//1
f 43//1 60//1 61//1
f 62//1 31//1 61//1
f 43//1 59//1 60//1
f 63//1 31//1 62//1
f 43//1 58//1 59//1
f 64//1 31//1 63//1
f 64//1 30//1 31//1
f 44//1 58//1 43//1
f 44//1 57//1 58//1
f 65//1 30//1 64//1
f 44//1 56//1 57//1
f 66//1 30//1 65//1
f 66//1 29//1 30//1
f 45//1 56//1 44//1
f 45//1 55//1 56//1
f 67//1 29//1 66//1
f 45//1 54//1 55//1
f 68//1 29//1 67//1
f 68//1 28//1 29//1
f 46//1 54//1 45//1
f 46//1 53//1 54//1
f 69//1 28//1 68//1
f 69//1 27//1 28//1
f 47//1 53//1 46//1
f 47//1 52//1 53//1
f 70//1 27//1 69//1
f 71//1 27//1 70//1
f 47//1 51//1 52//1
f 71//1 26//1 27//1
f 48//1 51//1 47//1
f 72//1 26//1 71//1
f 48//1 50//1 51//1
f 72//1 25//1 26//1
f 1//1 50//1 48//1
f 73//1 25//1 72//1
f 1//1 49//1 50//1
f 2//1 49//1 1//1
f 2//1 96//1 49//1
f 74//1 25//1 73//1
f 74//1 24//1 25//1
f 75//1 24//1 74//1
f 2//1 95//1 96//1
f 75//1 23//1 24//1
f 3//1 95//1 2//1
f 76//1 23//1 75//1
f 3//1 94//1 95//1
f 76//1 22//1 23//1
f 4//1 94//1 3//1
f 77//1 22//1 76//1
f 4//1 93//1 94//1
f 77//1 21//1 22//1
f 5//1 93//1 4//1
f 78//1 21//1 77//1
f 5//1 92//1 93//1
f 79//1 21//1 78//1
f 5//1 91//1 92//1
f 79//1 20//1 21//1
f 6//1 91//1 5//1
f 80//1 20//1 79//1
f 6//1 90//1 91//1
f 81//1 20//1 80//1
f 6//1 89//1 90//1
f 81//1 19//1 20//1
f 7//1 89//1 6//1
f 82//1 19//1 81//1
f 7//1 88//1 89//1
f 83//1 19//1 82//1
f 7//1 87//1 88//1
f 83//1 18//1 19//1
f 8//1 87//1 7//1
f 84//1 18//1 83//1
f 8//1 86//1 87//1
f 85//1 18//1 84//1
f 8//1 85//1 86//1
f 8//1 18//1 85//1
f 8//1 17//1 18//1
f 9//1 17//1 8//1
f 9//1 16//1 17//1
f 10//1 16//1 9//1
f 10//1 15//1 16//1
f 11//1 15//1 10//1
f 11//1 14//1 15//1
f 12//1 14//1 11//1
f 12//1 13//1 14//1
