# Blender v2.79 (sub 0) OBJ File: 'O.blend'
# www.blender.org
mtllib O.mtl
o Text
v -0.366500 0.000000 0.000000
v -0.363597 -0.045749 -0.000000
v -0.355023 -0.090162 -0.000000
v -0.340984 -0.132734 -0.000000
v -0.321685 -0.172963 -0.000000
v -0.297330 -0.210344 -0.000000
v -0.268125 -0.244375 -0.000000
v -0.234274 -0.274552 -0.000000
v -0.195982 -0.300370 -0.000000
v -0.153453 -0.321328 -0.000000
v -0.106894 -0.336921 -0.000000
v -0.056508 -0.346646 -0.000000
v -0.002500 -0.350000 -0.000000
v 0.053286 -0.346627 -0.000000
v 0.105042 -0.336852 -0.000000
v 0.152609 -0.321188 -0.000000
v 0.195833 -0.300148 -0.000000
v 0.234557 -0.274248 -0.000000
v 0.268625 -0.244000 -0.000000
v 0.297880 -0.209919 -0.000000
v 0.322167 -0.172519 -0.000000
v 0.341328 -0.132313 -0.000000
v 0.355208 -0.089815 -0.000000
v 0.363651 -0.045539 -0.000000
v 0.366500 0.000000 0.000000
v 0.363576 0.046800 0.000000
v 0.354940 0.091898 0.000000
v 0.340797 0.134844 0.000000
v 0.321352 0.175185 0.000000
v 0.296810 0.212471 0.000000
v 0.267375 0.246250 0.000000
v 0.233253 0.276071 0.000000
v 0.194648 0.301481 0.000000
v 0.151766 0.322031 0.000000
v 0.104810 0.337269 0.000000
v 0.053987 0.346742 0.000000
v -0.000500 0.350000 0.000000
v -0.054127 0.346723 0.000000
v -0.104347 0.337199 0.000000
v -0.150922 0.321891 0.000000
v -0.193611 0.301259 0.000000
v -0.232175 0.275767 0.000000
v -0.266375 0.245875 0.000000
v -0.295970 0.212046 0.000000
v -0.320722 0.174741 0.000000
v -0.340391 0.134422 0.000000
v -0.354736 0.091551 0.000000
v -0.363519 0.046590 0.000000
v -0.265500 0.000000 0.000000
v -0.263189 0.036626 0.000000
v -0.256426 0.071343 0.000000
v -0.245469 0.103906 0.000000
v -0.230574 0.134074 0.000000
v -0.211999 0.161603 0.000000
v -0.190000 0.186250 0.000000
v -0.164834 0.207772 0.000000
v -0.136759 0.225926 0.000000
v -0.106031 0.240469 0.000000
v -0.072907 0.251157 0.000000
v -0.037645 0.257749 0.000000
v -0.000500 0.260000 0.000000
v 0.036874 0.257749 0.000000
v 0.072329 0.251157 0.000000
v 0.105609 0.240469 0.000000
v 0.136463 0.225926 0.000000
v 0.164636 0.207772 0.000000
v 0.189875 0.186250 0.000000
v 0.211927 0.161603 0.000000
v 0.230537 0.134074 0.000000
v 0.245453 0.103906 0.000000
v 0.256421 0.071343 0.000000
v 0.263188 0.036626 0.000000
v 0.265500 0.000000 0.000000
v 0.263188 -0.036416 -0.000000
v 0.256421 -0.070995 -0.000000
v 0.245453 -0.103484 -0.000000
v 0.230537 -0.133630 -0.000000
v 0.211926 -0.161178 -0.000000
v 0.189875 -0.185875 -0.000000
v 0.164636 -0.207468 -0.000000
v 0.136463 -0.225704 -0.000000
v 0.105609 -0.240328 -0.000000
v 0.072329 -0.251088 -0.000000
v 0.036874 -0.257730 -0.000000
v -0.000500 -0.260000 -0.000000
v -0.037645 -0.257730 -0.000000
v -0.072907 -0.251088 -0.000000
v -0.106031 -0.240328 -0.000000
v -0.136759 -0.225704 -0.000000
v -0.164835 -0.207468 -0.000000
v -0.190000 -0.185875 -0.000000
v -0.211999 -0.161178 -0.000000
v -0.230574 -0.133630 -0.000000
v -0.245469 -0.103484 -0.000000
v -0.256426 -0.070995 -0.000000
v -0.263189 -0.036416 -0.000000
vn -0.0000 -0.0000 1.0000
usemtl Material.001
s off
f 38//1 36//1 37//1
f 38//1 35//1 36//1
f 39//1 35//1 38//1
f 39//1 34//1 35//1
f 40//1 34//1 39//1
f 40//1 33//1 34//1
f 41//1 33//1 40//1
f 41//1 32//1 33//1
f 42//1 32//1 41//1
f 42//1 31//1 32//1
f 43//1 61//1 42//1
f 61//1 31//1 42//1
f 43//1 60//1 61//1
f 62//1 31//1 61//1
f 43//1 59//1 60//1
f 63//1 31//1 62//1
f 43//1 58//1 59//1
f 64//1 31//1 63//1
f 64//1 30//1 31//1
f 44//1 58//1 43//1
f 44//1 57//1 58//1
f 65//1 30//1 64//1
f 44//1 56//1 57//1
f 66//1 30//1 65//1
f 66//1 29//1 30//1
f 45//1 56//1 44//1
f 45//1 55//1 56//1
f 67//1 29//1 66//1
f 45//1 54//1 55//1
f 68//1 29//1 67//1
f 68//1 28//1 29//1
f 46//1 54//1 45//1
f 46//1 53//1 54//1
f 69//1 28//1 68//1
f 69//1 27//1 28//1
f 47//1 53//1 46//1
f 47//1 52//1 53//1
f 70//1 27//1 69//1
f 71//1 27//1 70//1
f 47//1 51//1 52//1
f 71//1 26//1 27//1
f 48//1 51//1 47//1
f 72//1 26//1 71//1
f 48//1 50//1 51//1
f 72//1 25//1 26//1
f 1//1 50//1 48//1
f 73//1 25//1 72//1
f 1//1 49//1 50//1
f 2//1 49//1 1//1
f 2//1 96//1 49//1
f 74//1 25//1 73//1
f 74//1 24//1 25//1
f 75//1 24//1 74//1
f 2//1 95//1 96//1
f 75//1 23//1 24//1
f 3//1 95//1 2//1
f 76//1 23//1 75//1
f 3//1 94//1 95//1
f 76//1 22//1 23//1
f 4//1 94//1 3//1
f 77//1 22//1 76//1
f 4//1 93//1 94//1
f 77//1 21//1 22//1
f 5//1 93//1 4//1
f 78//1 21//1 77//1
f 5//1 92//1 93//1
f 79//1 21//1 78//1
f 5//1 91//1 92//1
f 79//1 20//1 21//1
f 6//1 91//1 5//1
f 80//1 20//1 79//1
f 6//1 90//1 91//1
f 81//1 20//1 80//1
f 6//1 89//1 90//1
f 81//1 19//1 20//1
f 7//1 89//1 6//1
f 82//1 19//1 81//1
f 7//1 88//1 89//1
f 83//1 19//1 82//1
f 7//1 87//1 88//1
f 83//1 18//1 19//1
f 8//1 87//1 7//1
f 84//1 18//1 83//1
f 8//1 86//1 87//1
f 85//1 18//1 84//1
f 8//1 85//1 86//1
f 8//1 18//1 85//1
f 8//1 17//1 18//1
f 9//1 17//1 8//1
f 9//1 16//1 17//1
f 10//1 16//1 9//1
f 10//1 15//1 16//1
f 11//1 15//1 10//1
f 11//1 14//1 15//1
f 12//1 14//1 11//1
f 12//1 13//1 14//1
