# Blender v2.79 (sub 0) OBJ File: 'plus.blend'
# www.blender.org
mtllib plus.mtl
o Text
v -0.014152 0.000000 0.013295
v -0.092204 0.000000 0.013295
v -0.092204 0.000000 -0.013295
v -0.014152 0.000000 -0.013295
v -0.014152 0.000000 -0.096922
v 0.014152 0.000000 -0.096922
v 0.014152 0.000000 -0.013295
v 0.092204 0.000000 -0.013295
v 0.092204 0.000000 0.013295
v 0.014152 0.000000 0.013295
v 0.014152 0.000000 0.096922
v -0.014152 0.000000 0.096922
vn 0.0000 1.0000 0.0000
vn 0.0000 0.0000 1.0000
usemtl Material.001
s off
f 4//1 6//1 5//1
f 4//1 7//1 6//1
f 2//1 4//1 3//1
f 2//1 7//1 4//1
f 2//1 8//1 7//1
f 2//1 9//1 8//1
f 1//2 9//2 2//2
f 12//1 10//1 1//1
f 10//2 9//2 1//2
f 12//1 11//1 10//1
