# Blender v2.79 (sub 0) OBJ File: 'plus.blend'
# www.blender.org
mtllib plus.mtl
o Text_CUText
v -0.076744 0.000000 0.068584
v -0.500000 0.000000 0.068584
v -0.500000 0.000000 -0.068584
v -0.076744 0.000000 -0.068584
v -0.076744 0.000000 -0.500000
v 0.076744 0.000000 -0.500000
v 0.076744 0.000000 -0.068584
v 0.500000 0.000000 -0.068584
v 0.500000 0.000000 0.068584
v 0.076744 0.000000 0.068584
v 0.076744 0.000000 0.500000
v -0.076744 0.000000 0.500000
vt 0.000000 0.000000
vt 1.000000 0.000000
vt 1.000000 1.000000
vt 1.000000 0.000000
vt 1.000000 1.000000
vt 0.000000 0.000000
vt 1.000000 0.000000
vt 1.000000 1.000000
vt 1.000000 1.000000
vt 1.000000 0.000000
vt 1.000000 1.000000
vt 1.000000 0.000000
vt 1.000000 1.000000
vt 0.000000 0.000000
vt 1.000000 1.000000
vt 0.000000 0.000000
vt 1.000000 0.000000
vt 1.000000 1.000000
vt 0.000000 0.000000
vt 1.000000 0.000000
vt 1.000000 1.000000
vn 0.0000 1.0000 0.0000
vn 0.0000 0.0000 1.0000
usemtl Material.001
s off
f 4/1/1 6/2/1 5/3/1
f 4/1/1 7/4/1 6/5/1
f 2/6/1 4/7/1 3/8/1
f 2/6/1 7/4/1 4/9/1
f 2/6/1 8/10/1 7/11/1
f 2/6/1 9/12/1 8/13/1
f 1/14/2 9/12/2 2/15/2
f 12/16/1 10/17/1 1/18/1
f 10/19/2 9/12/2 1/18/2
f 12/16/1 11/20/1 10/21/1
