# Blender v2.79 (sub 0) OBJ File: 'rect.blend'
# www.blender.org
mtllib rect.mtl
o Text
v -0.500000 0.000000 0.500000
v -0.500000 0.000000 -0.500000
v 0.500000 0.000000 -0.500000
v 0.500000 0.000000 0.500000
v -0.375912 0.000000 0.428571
v 0.375912 0.000000 0.428571
v 0.375912 0.000000 -0.428571
v -0.375912 0.000000 -0.428571
vn 0.0000 1.0000 0.0000
usemtl Material.001
s off
f 1//1 8//1 2//1
f 8//1 3//1 2//1
f 8//1 7//1 3//1
f 7//1 4//1 3//1
f 1//1 5//1 8//1
f 6//1 4//1 7//1
f 1//1 6//1 5//1
f 1//1 4//1 6//1
