# Blender v2.78 (sub 0) OBJ File: 'roof.blend'
# www.blender.org
v -1.288929 0.211808 -1.003437
v -0.500000 1.000000 -1.500000
v -1.000000 0.500000 -0.000000
v -1.000000 0.500000 -2.000000
v -0.000000 1.500000 -1.000000
v -0.500000 1.000000 -0.500000
v 1.000000 0.500000 -2.000000
v -1.000000 0.500000 -1.000000
v -0.000000 1.500000 0.000000
v 0.999999 0.500000 0.000001
v -1.288929 0.211808 0.284995
v 1.287935 0.211808 0.284996
v 1.287936 0.211808 -2.291868
v -1.288928 0.211808 -2.291868
v -1.000000 0.500000 2.000000
v 0.999999 0.500000 2.000000
v -0.000000 1.500000 1.000000
v 1.287935 0.211808 2.284996
v -1.288929 0.211808 2.284995
v -0.000496 0.211808 -2.291868
v 1.287935 0.211808 -1.003436
v 1.143967 0.355904 0.142498
v -0.500000 1.000000 1.500000
v -0.000497 0.211808 2.284996
v -1.000000 0.500000 1.000000
v 1.287935 0.211808 1.284996
v -1.288929 0.211808 1.284995
v 1.000000 0.500000 -0.999999
v 0.000000 0.500000 -2.000000
v 0.500000 1.000000 -1.500000
v 0.500000 1.000000 -0.500000
v 0.999999 0.500000 1.000000
v -1.144464 0.355904 0.142497
v -1.144464 0.355904 -2.145934
v 1.143968 0.355904 -2.145934
v -0.000001 0.500000 2.000000
v 0.500000 1.000000 1.500000
v 1.143967 0.355904 2.142498
v -1.144464 0.355904 2.142497
v -1.144464 0.355904 1.142497
v -0.000249 0.355904 2.142498
v 1.143968 0.355904 -1.001718
v -1.144464 0.355904 -1.001718
v -0.000248 0.355904 -2.145934
v 0.500000 1.000000 0.500000
v -0.500000 1.000000 0.500000
v 1.143967 0.355904 1.142498
v -1.072232 0.427952 2.071249
v 1.215951 0.283856 2.213748
v -0.000000 1.500000 0.500000
v -1.000000 0.500000 -1.500000
v 0.749999 0.750000 1.750000
v 0.499999 0.500000 2.000000
v 1.071984 0.427952 -2.072967
v -1.216696 0.283856 -2.218901
v -1.072232 0.427952 0.071249
v 0.999999 0.500000 0.500000
v 0.749999 0.750000 -0.250000
v 0.750000 0.750000 -1.750000
v -0.750000 0.750000 -0.250000
v -0.750000 0.750000 -1.750000
v 0.500000 0.500000 -2.000000
v 1.000000 0.500000 -1.500000
v -1.288929 0.211808 1.784995
v 1.287935 0.211808 1.784996
v -1.000000 0.500000 0.500000
v -1.288928 0.211808 -1.647653
v -0.644712 0.211808 -2.291868
v 1.287935 0.211808 -0.359220
v 1.071983 0.427952 0.071249
v 0.643719 0.211808 2.284996
v -0.250000 1.250000 1.250000
v 1.215951 0.283856 0.213747
v 1.287936 0.211808 -1.647652
v 0.643720 0.211808 -2.291868
v -1.288929 0.211808 -0.359221
v -0.250000 1.250000 -1.250000
v -0.750000 0.750000 1.750000
v -0.250000 1.250000 -0.750000
v -1.000000 0.500000 -0.500000
v -0.644713 0.211808 2.284995
v -0.000000 1.500000 -0.500000
v -1.000000 0.500000 1.500000
v 1.287935 0.211808 0.784996
v -1.288929 0.211808 0.784995
v 1.000000 0.500000 -0.499999
v -0.500000 0.500000 -2.000000
v 0.250000 1.250000 -1.250000
v 0.250000 1.250000 -0.750000
v 0.999999 0.500000 1.500000
v -1.216697 0.283856 0.213746
v -1.072232 0.427952 -2.072967
v 1.215952 0.283856 -2.218901
v -0.500000 0.500000 2.000000
v 0.250000 1.250000 1.250000
v 1.071983 0.427952 2.071249
v -1.216697 0.283856 2.213746
v -1.144464 0.355904 1.642497
v -1.144464 0.355904 0.642497
v -1.072232 0.427952 1.071249
v -1.216697 0.283856 1.213746
v -0.000373 0.283856 2.213747
v -0.000125 0.427952 2.071249
v 0.571859 0.355904 2.142498
v -0.572357 0.355904 2.142498
v -0.000000 1.000000 1.500000
v -0.250000 0.750000 1.750000
v 0.250000 0.750000 1.750000
v 1.215952 0.283856 -1.002577
v 1.071984 0.427952 -1.000859
v 1.143968 0.355904 -1.573826
v 1.143967 0.355904 -0.429610
v -1.216696 0.283856 -1.002578
v -1.072232 0.427952 -1.000859
v -1.144464 0.355904 -0.429611
v -1.144464 0.355904 -1.573826
v -0.000372 0.283856 -2.218901
v -0.000124 0.427952 -2.072967
v -0.572356 0.355904 -2.145934
v 0.571860 0.355904 -2.145934
v 0.500000 1.000000 1.000000
v 0.500000 1.000000 0.000000
v 0.749999 0.750000 0.750000
v 0.250000 1.250000 0.250000
v 0.000000 1.000000 -1.500000
v 0.250000 0.750000 -1.750000
v -0.250000 0.750000 -1.750000
v -0.500000 1.000000 -1.000000
v -0.750000 0.750000 -1.250000
v -0.750000 0.750000 -0.750000
v 0.500000 1.000000 -1.000000
v 0.750000 0.750000 -0.750000
v 0.750000 0.750000 -1.250000
v -0.500000 1.000000 1.000000
v -0.500000 1.000000 -0.000000
v -0.250000 1.250000 0.250000
v -0.750000 0.750000 0.750000
v 1.143967 0.355904 1.642498
v 1.143967 0.355904 0.642498
v 1.215951 0.283856 1.213748
v 1.071983 0.427952 1.071249
v 1.071983 0.427952 0.571249
v 1.215951 0.283856 0.713748
v 1.215951 0.283856 1.713748
v -0.750000 0.750000 0.250000
v -0.250000 1.250000 -0.250000
v -0.250000 1.250000 0.750000
v 0.250000 1.250000 -0.250000
v 0.749999 0.750000 0.250000
v 0.749999 0.750000 1.250000
v 0.535930 0.427952 -2.072967
v -0.536178 0.427952 -2.072967
v -0.608534 0.283856 -2.218901
v -1.072232 0.427952 -1.536913
v -1.072232 0.427952 -0.464805
v -1.216697 0.283856 -0.394416
v 1.071984 0.427952 -0.464805
v 1.071984 0.427952 -1.536913
v 1.215952 0.283856 -1.610739
v -1.216697 0.283856 1.713746
v -1.072232 0.427952 1.571249
v -0.608535 0.283856 2.213747
v -1.072232 0.427952 0.571249
v -1.216697 0.283856 0.713746
v 1.215951 0.283856 -0.394415
v -1.216696 0.283856 -1.610739
v 0.607790 0.283856 -2.218901
v 0.250000 1.250000 0.750000
v 0.607789 0.283856 2.213747
v 0.535929 0.427952 2.071249
v -0.536179 0.427952 2.071249
v -0.750000 0.750000 1.250000
v 1.071983 0.427952 1.571249
vt 0.0847 0.8090
vt 0.1231 0.8952
vt 0.1046 0.9149
vt 0.5695 0.7995
vt 0.4868 0.8340
vt 0.5088 0.7360
vt 0.0841 0.4884
vt 0.0899 0.3897
vt 0.1544 0.4433
vt 0.5539 0.1004
vt 0.5745 0.2011
vt 0.4949 0.1658
vt 0.1452 0.0929
vt 0.2481 0.0865
vt 0.2017 0.1604
vt 0.5639 0.9236
vt 0.4570 0.9537
vt 0.4482 0.9322
vt 0.2198 0.9279
vt 0.3336 0.9556
vt 0.2103 0.9491
vt 0.2006 0.9705
vt 0.3328 0.9999
vt 0.1908 0.9922
vt 0.2821 0.6226
vt 0.3392 0.6550
vt 0.2952 0.7060
vt 0.0944 0.0318
vt 0.2148 0.0019
vt 0.2233 0.0234
vt 0.6070 0.0412
vt 0.6527 0.1561
vt 0.6328 0.1676
vt 0.0214 0.5303
vt 0.0050 0.4114
vt 0.0266 0.4057
vt 0.5462 0.9031
vt 0.4396 0.9109
vt 0.6759 0.6627
vt 0.6435 0.7508
vt 0.6558 0.6459
vt 0.6358 0.6293
vt 0.6053 0.7150
vt 0.6162 0.6132
vt 0.6001 0.9652
vt 0.4750 0.9975
vt 0.4659 0.9755
vt 0.6062 0.8376
vt 0.5877 0.8184
vt 0.6437 0.8770
vt 0.6248 0.8572
vt 0.4314 0.7684
vt 0.3370 0.7716
vt 0.3812 0.7077
vt 0.3857 0.8398
vt 0.3343 0.9123
vt 0.2292 0.9070
vt 0.2857 0.8380
vt 0.0639 0.1571
vt 0.0198 0.2781
vt 0.0445 0.1449
vt 0.1021 0.1810
vt 0.0615 0.2848
vt 0.0831 0.1691
vt 0.0634 0.5020
vt 0.0479 0.4002
vt 0.0690 0.3949
vt 0.6609 0.4175
vt 0.6725 0.2902
vt 0.6823 0.4239
vt 0.6188 0.4051
vt 0.6305 0.2953
vt 0.6398 0.4112
vt 0.5714 0.0809
vt 0.6132 0.1789
vt 0.5937 0.1900
vt 0.4785 0.0281
vt 0.3514 0.0001
vt 0.4878 0.0069
vt 0.4602 0.0697
vt 0.3505 0.0432
vt 0.4693 0.0490
vt 0.1284 0.0727
vt 0.2316 0.0446
vt 0.2399 0.0657
vt 0.1666 0.7296
vt 0.2428 0.7649
vt 0.1849 0.8283
vt 0.1518 0.5379
vt 0.2183 0.5827
vt 0.1556 0.6332
vt 0.2820 0.4503
vt 0.3421 0.4949
vt 0.2802 0.5372
vt 0.2550 0.2246
vt 0.3472 0.2218
vt 0.3038 0.2843
vt 0.2999 0.1554
vt 0.3497 0.0855
vt 0.4512 0.0902
vt 0.3969 0.1572
vt 0.4392 0.2280
vt 0.4564 0.3178
vt 0.3882 0.2858
vt 0.5140 0.2616
vt 0.5894 0.3004
vt 0.5981 0.3991
vt 0.5264 0.3560
vt 0.2226 0.4023
vt 0.2345 0.3137
vt 0.2875 0.3658
vt 0.1632 0.3493
vt 0.1022 0.2914
vt 0.1208 0.1927
vt 0.1790 0.2555
vt 0.4516 0.6772
vt 0.3974 0.6248
vt 0.4665 0.4969
vt 0.4025 0.5395
vt 0.4039 0.4526
vt 0.5967 0.5974
vt 0.5234 0.6400
vt 0.5307 0.5449
vt 0.0463 0.8463
vt 0.0859 0.9349
vt 0.0670 0.9551
vt 0.0233 0.6341
vt 0.0514 0.7220
vt 0.0316 0.7393
vt 0.0640 0.6029
vt 0.0904 0.6885
vt 0.0710 0.7051
vt 0.0437 0.6183
vt 0.0425 0.5160
vt 0.0840 0.5878
vt 0.0026 0.6502
vt 0.0115 0.7570
vt 0.0001 0.5449
vt 0.0267 0.8655
vt 0.0479 0.9755
vt 0.0656 0.8275
vt 0.4626 0.5873
vt 0.5317 0.4503
vt 0.4650 0.4068
vt 0.6003 0.4980
vt 0.3437 0.4106
vt 0.4015 0.3679
vt 0.3451 0.3360
vt 0.3406 0.5796
vt 0.2178 0.4922
vt 0.1036 0.7908
vt 0.2260 0.6730
vt 0.3501 0.0645
vt 0.5891 0.0611
vt 0.6250 0.0211
vt 0.3509 0.0218
vt 0.6098 0.2979
vt 0.6205 0.5124
vt 0.6409 0.5271
vt 0.6615 0.5422
vt 0.6823 0.5576
vt 0.6514 0.2927
vt 0.0820 0.2881
vt 0.1115 0.0524
vt 0.0772 0.0111
vt 0.0408 0.2815
vt 0.5819 0.9442
vt 0.6243 0.7327
vt 0.6630 0.7691
vt 0.5865 0.6977
vt 0.3332 0.9776
vt 0.3340 0.9338
vt 0.6185 0.9863
vn 0.7074 0.7068 0.0000
vn -0.7071 0.7071 0.0000
vn 0.7071 0.7071 0.0000
vn 0.0000 0.7071 -0.7071
vn 0.0000 0.7032 0.7110
vn 0.0000 0.7116 -0.7026
vn -0.7062 0.7080 -0.0000
vn -0.0000 0.7071 0.7071
s off
f 173/1/1 16/2/1 96/3/1
f 83/4/2 78/5/2 172/6/2
f 10/7/3 86/8/3 58/9/3
f 4/10/2 51/11/2 61/12/2
f 7/13/4 62/14/4 59/15/4
f 48/16/5 105/17/5 171/18/5
f 170/19/5 41/20/5 104/21/5
f 169/22/5 24/23/5 71/24/5
f 168/25/3 17/26/3 95/27/3
f 93/28/6 75/29/6 167/30/6
f 55/31/7 67/32/7 166/33/7
f 73/34/1 69/35/1 165/36/1
f 15/37/8 94/38/8 78/5/8
f 85/39/7 101/40/7 164/41/7
f 99/42/7 100/43/7 163/44/7
f 97/45/5 81/46/5 162/47/5
f 98/48/7 48/16/7 161/49/7
f 64/50/7 97/45/7 160/51/7
f 23/52/8 106/53/8 72/54/8
f 23/52/8 107/55/8 106/53/8
f 36/56/8 53/57/8 108/58/8
f 159/59/1 21/60/1 74/61/1
f 158/62/1 42/63/1 111/64/1
f 70/65/1 112/66/1 157/67/1
f 156/68/7 1/69/7 76/70/7
f 155/71/7 43/72/7 115/73/7
f 92/74/7 116/75/7 154/76/7
f 153/77/6 20/78/6 68/79/6
f 152/80/6 44/81/6 119/82/6
f 54/83/6 120/84/6 151/85/6
f 150/86/3 37/87/3 52/88/3
f 149/89/3 45/90/3 123/91/3
f 148/92/3 9/93/3 124/94/3
f 30/95/4 125/96/4 88/97/4
f 30/95/4 126/98/4 125/96/4
f 29/99/4 87/100/4 127/101/4
f 2/102/2 128/103/2 77/104/2
f 2/102/2 129/105/2 128/103/2
f 8/106/2 80/107/2 130/108/2
f 31/109/3 131/110/3 89/111/3
f 31/109/3 132/112/3 131/110/3
f 28/113/3 63/114/3 133/115/3
f 134/116/2 72/54/2 147/117/2
f 135/118/2 136/119/2 146/120/2
f 66/121/2 137/122/2 145/123/2
f 144/124/1 38/125/1 49/126/1
f 143/127/1 47/128/1 140/129/1
f 142/130/1 32/131/1 141/132/1
f 139/133/1 141/132/1 47/128/1
f 22/134/1 142/130/1 139/133/1
f 70/65/1 57/135/1 142/130/1
f 84/136/1 140/129/1 26/137/1
f 12/138/1 143/127/1 84/136/1
f 73/34/1 139/133/1 143/127/1
f 65/139/1 49/126/1 18/140/1
f 26/137/1 144/124/1 65/139/1
f 140/129/1 138/141/1 144/124/1
f 145/123/2 46/142/2 135/118/2
f 60/143/2 135/118/2 6/144/2
f 3/145/2 145/123/2 60/143/2
f 146/120/2 9/93/2 82/146/2
f 79/147/2 82/146/2 5/148/2
f 6/144/2 146/120/2 79/147/2
f 147/117/2 17/26/2 50/149/2
f 136/119/2 50/149/2 9/93/2
f 46/142/2 147/117/2 136/119/2
f 133/115/3 59/15/3 30/95/3
f 133/115/3 63/114/3 59/15/3
f 63/114/3 7/13/3 59/15/3
f 131/110/3 133/115/3 30/95/3
f 131/110/3 132/112/3 133/115/3
f 132/112/3 28/113/3 133/115/3
f 89/111/3 88/97/3 5/148/3
f 89/111/3 131/110/3 88/97/3
f 131/110/3 30/95/3 88/97/3
f 130/108/2 60/143/2 6/144/2
f 130/108/2 80/107/2 60/143/2
f 80/107/2 3/145/2 60/143/2
f 128/103/2 130/108/2 6/144/2
f 128/103/2 129/105/2 130/108/2
f 129/105/2 8/106/2 130/108/2
f 77/104/2 79/147/2 5/148/2
f 77/104/2 128/103/2 79/147/2
f 128/103/2 6/144/2 79/147/2
f 127/101/4 61/12/4 2/102/4
f 127/101/4 87/100/4 61/12/4
f 87/100/4 4/10/4 61/12/4
f 125/96/4 127/101/4 2/102/4
f 125/96/4 126/98/4 127/101/4
f 126/98/4 29/99/4 127/101/4
f 88/97/4 77/104/4 5/148/4
f 88/97/4 125/96/4 77/104/4
f 125/96/4 2/102/4 77/104/4
f 122/150/3 124/94/3 45/90/3
f 31/109/3 148/92/3 122/150/3
f 89/111/3 82/146/3 148/92/3
f 57/135/3 123/91/3 32/131/3
f 10/7/3 149/89/3 57/135/3
f 58/9/3 122/150/3 149/89/3
f 90/151/3 52/88/3 16/2/3
f 32/131/3 150/86/3 90/151/3
f 123/91/3 121/152/3 150/86/3
f 151/85/6 44/81/6 118/153/6
f 62/14/6 118/153/6 29/99/6
f 7/13/6 151/85/6 62/14/6
f 92/74/6 119/82/6 34/154/6
f 4/10/6 152/80/6 92/74/6
f 87/100/6 118/153/6 152/80/6
f 55/31/6 68/79/6 14/155/6
f 34/154/6 153/77/6 55/31/6
f 119/82/6 117/156/6 153/77/6
f 154/76/7 43/72/7 114/157/7
f 51/11/7 114/157/7 8/106/7
f 4/10/7 154/76/7 51/11/7
f 56/158/7 115/73/7 33/159/7
f 3/145/7 155/71/7 56/158/7
f 80/107/7 114/157/7 155/71/7
f 91/160/7 76/70/7 11/161/7
f 33/159/7 156/68/7 91/160/7
f 115/73/7 113/162/7 156/68/7
f 157/67/1 42/63/1 110/163/1
f 86/8/1 110/163/1 28/113/1
f 10/7/1 157/67/1 86/8/1
f 54/83/1 111/64/1 35/164/1
f 7/13/1 158/62/1 54/83/1
f 63/114/1 110/163/1 158/62/1
f 93/28/1 74/61/1 13/165/1
f 35/164/1 159/59/1 93/28/1
f 111/64/1 109/166/1 159/59/1
f 108/58/8 52/88/8 37/87/8
f 108/58/8 53/57/8 52/88/8
f 53/57/8 16/2/8 52/88/8
f 106/53/8 108/58/8 37/87/8
f 106/53/8 107/55/8 108/58/8
f 107/55/8 36/56/8 108/58/8
f 72/54/8 95/27/8 17/26/8
f 72/54/8 106/53/8 95/27/8
f 106/53/8 37/87/8 95/27/8
f 160/51/7 39/167/7 98/48/7
f 101/40/7 98/48/7 40/168/7
f 27/169/7 160/51/7 101/40/7
f 161/49/7 15/37/7 83/4/7
f 100/43/7 83/4/7 25/170/7
f 40/168/7 161/49/7 100/43/7
f 162/47/5 24/23/5 102/171/5
f 105/17/5 102/171/5 41/20/5
f 39/167/5 162/47/5 105/17/5
f 163/44/7 25/170/7 66/121/7
f 56/158/7 66/121/7 3/145/7
f 33/159/7 163/44/7 56/158/7
f 164/41/7 40/168/7 99/42/7
f 91/160/7 99/42/7 33/159/7
f 11/161/7 164/41/7 91/160/7
f 78/5/8 107/55/8 23/52/8
f 78/5/8 94/38/8 107/55/8
f 94/38/8 36/56/8 107/55/8
f 165/36/1 21/60/1 109/166/1
f 112/66/1 109/166/1 42/63/1
f 22/134/1 165/36/1 112/66/1
f 166/33/7 1/69/7 113/162/7
f 116/75/7 113/162/7 43/72/7
f 34/154/7 166/33/7 116/75/7
f 167/30/6 20/78/6 117/156/6
f 120/84/6 117/156/6 44/81/6
f 35/164/6 167/30/6 120/84/6
f 121/152/3 95/27/3 37/87/3
f 45/90/3 168/25/3 121/152/3
f 124/94/3 50/149/3 168/25/3
f 49/126/5 71/24/5 18/140/5
f 38/125/5 169/22/5 49/126/5
f 104/21/5 102/171/5 169/22/5
f 96/3/5 104/21/5 38/125/5
f 16/2/5 170/19/5 96/3/5
f 53/57/5 103/172/5 170/19/5
f 171/18/5 41/20/5 103/172/5
f 94/38/5 103/172/5 36/56/5
f 15/37/5 171/18/5 94/38/5
f 59/15/4 126/98/4 30/95/4
f 59/15/4 62/14/4 126/98/4
f 62/14/4 29/99/4 126/98/4
f 61/12/2 129/105/2 2/102/2
f 61/12/2 51/11/2 129/105/2
f 51/11/2 8/106/2 129/105/2
f 58/9/3 132/112/3 31/109/3
f 58/9/3 86/8/3 132/112/3
f 86/8/3 28/113/3 132/112/3
f 172/6/2 23/52/2 134/116/2
f 137/122/2 134/116/2 46/142/2
f 25/170/2 172/6/2 137/122/2
f 138/141/1 96/3/1 38/125/1
f 47/128/1 173/1/1 138/141/1
f 141/132/1 90/151/1 173/1/1
f 173/1/1 90/151/1 16/2/1
f 83/4/2 15/37/2 78/5/2
f 48/16/5 39/167/5 105/17/5
f 170/19/5 103/172/5 41/20/5
f 169/22/5 102/171/5 24/23/5
f 168/25/3 50/149/3 17/26/3
f 93/28/6 13/165/6 75/29/6
f 55/31/7 14/155/7 67/32/7
f 73/34/1 12/138/1 69/35/1
f 85/39/7 27/169/7 101/40/7
f 99/42/7 40/168/7 100/43/7
f 97/45/5 19/173/5 81/46/5
f 98/48/7 39/167/7 48/16/7
f 64/50/7 19/173/7 97/45/7
f 159/59/1 109/166/1 21/60/1
f 158/62/1 110/163/1 42/63/1
f 70/65/1 22/134/1 112/66/1
f 156/68/7 113/162/7 1/69/7
f 155/71/7 114/157/7 43/72/7
f 92/74/7 34/154/7 116/75/7
f 153/77/6 117/156/6 20/78/6
f 152/80/6 118/153/6 44/81/6
f 54/83/6 35/164/6 120/84/6
f 150/86/3 121/152/3 37/87/3
f 149/89/3 122/150/3 45/90/3
f 148/92/3 82/146/3 9/93/3
f 134/116/2 23/52/2 72/54/2
f 135/118/2 46/142/2 136/119/2
f 66/121/2 25/170/2 137/122/2
f 144/124/1 138/141/1 38/125/1
f 143/127/1 139/133/1 47/128/1
f 142/130/1 57/135/1 32/131/1
f 139/133/1 142/130/1 141/132/1
f 22/134/1 70/65/1 142/130/1
f 70/65/1 10/7/1 57/135/1
f 84/136/1 143/127/1 140/129/1
f 12/138/1 73/34/1 143/127/1
f 73/34/1 22/134/1 139/133/1
f 65/139/1 144/124/1 49/126/1
f 26/137/1 140/129/1 144/124/1
f 140/129/1 47/128/1 138/141/1
f 145/123/2 137/122/2 46/142/2
f 60/143/2 145/123/2 135/118/2
f 3/145/2 66/121/2 145/123/2
f 146/120/2 136/119/2 9/93/2
f 79/147/2 146/120/2 82/146/2
f 6/144/2 135/118/2 146/120/2
f 147/117/2 72/54/2 17/26/2
f 136/119/2 147/117/2 50/149/2
f 46/142/2 134/116/2 147/117/2
f 122/150/3 148/92/3 124/94/3
f 31/109/3 89/111/3 148/92/3
f 89/111/3 5/148/3 82/146/3
f 57/135/3 149/89/3 123/91/3
f 10/7/3 58/9/3 149/89/3
f 58/9/3 31/109/3 122/150/3
f 90/151/3 150/86/3 52/88/3
f 32/131/3 123/91/3 150/86/3
f 123/91/3 45/90/3 121/152/3
f 151/85/6 120/84/6 44/81/6
f 62/14/6 151/85/6 118/153/6
f 7/13/6 54/83/6 151/85/6
f 92/74/6 152/80/6 119/82/6
f 4/10/6 87/100/6 152/80/6
f 87/100/6 29/99/6 118/153/6
f 55/31/6 153/77/6 68/79/6
f 34/154/6 119/82/6 153/77/6
f 119/82/6 44/81/6 117/156/6
f 154/76/7 116/75/7 43/72/7
f 51/11/7 154/76/7 114/157/7
f 4/10/7 92/74/7 154/76/7
f 56/158/7 155/71/7 115/73/7
f 3/145/7 80/107/7 155/71/7
f 80/107/7 8/106/7 114/157/7
f 91/160/7 156/68/7 76/70/7
f 33/159/7 115/73/7 156/68/7
f 115/73/7 43/72/7 113/162/7
f 157/67/1 112/66/1 42/63/1
f 86/8/1 157/67/1 110/163/1
f 10/7/1 70/65/1 157/67/1
f 54/83/1 158/62/1 111/64/1
f 7/13/1 63/114/1 158/62/1
f 63/114/1 28/113/1 110/163/1
f 93/28/1 159/59/1 74/61/1
f 35/164/1 111/64/1 159/59/1
f 111/64/1 42/63/1 109/166/1
f 160/51/7 97/45/7 39/167/7
f 101/40/7 160/51/7 98/48/7
f 27/169/7 64/50/7 160/51/7
f 161/49/7 48/16/7 15/37/7
f 100/43/7 161/49/7 83/4/7
f 40/168/7 98/48/7 161/49/7
f 162/47/5 81/46/5 24/23/5
f 105/17/5 162/47/5 102/171/5
f 39/167/5 97/45/5 162/47/5
f 163/44/7 100/43/7 25/170/7
f 56/158/7 163/44/7 66/121/7
f 33/159/7 99/42/7 163/44/7
f 164/41/7 101/40/7 40/168/7
f 91/160/7 164/41/7 99/42/7
f 11/161/7 85/39/7 164/41/7
f 165/36/1 69/35/1 21/60/1
f 112/66/1 165/36/1 109/166/1
f 22/134/1 73/34/1 165/36/1
f 166/33/7 67/32/7 1/69/7
f 116/75/7 166/33/7 113/162/7
f 34/154/7 55/31/7 166/33/7
f 167/30/6 75/29/6 20/78/6
f 120/84/6 167/30/6 117/156/6
f 35/164/6 93/28/6 167/30/6
f 121/152/3 168/25/3 95/27/3
f 45/90/3 124/94/3 168/25/3
f 124/94/3 9/93/3 50/149/3
f 49/126/5 169/22/5 71/24/5
f 38/125/5 104/21/5 169/22/5
f 104/21/5 41/20/5 102/171/5
f 96/3/5 170/19/5 104/21/5
f 16/2/5 53/57/5 170/19/5
f 53/57/5 36/56/5 103/172/5
f 171/18/5 105/17/5 41/20/5
f 94/38/5 171/18/5 103/172/5
f 15/37/5 48/16/5 171/18/5
f 172/6/2 78/5/2 23/52/2
f 137/122/2 172/6/2 134/116/2
f 25/170/2 83/4/2 172/6/2
f 138/141/1 173/1/1 96/3/1
f 47/128/1 141/132/1 173/1/1
f 141/132/1 32/131/1 90/151/1
