# Blender v2.79 (sub 0) OBJ File: 'stair.blend'
# www.blender.org
mtllib stair.mtl
o Text
v -0.500000 0.050000 0.320988
v 0.293249 0.050000 0.000000
v -0.500000 0.050000 -0.320988
v -0.500000 0.050000 -0.500000
v 0.500000 0.050000 -0.084362
v 0.500000 0.050000 0.084362
v -0.500000 0.050000 0.500000
v -0.500000 -0.050000 0.320988
v 0.293249 -0.050000 0.000000
v -0.500000 -0.050000 -0.320988
v -0.500000 -0.050000 -0.500000
v 0.500000 -0.050000 -0.084362
v 0.500000 -0.050000 0.084362
v -0.500000 -0.050000 0.500000
v -0.500000 -0.050000 0.320988
v -0.500000 0.050000 0.320988
v 0.293249 -0.050000 0.000000
v 0.293249 0.050000 0.000000
v -0.500000 -0.050000 -0.320988
v -0.500000 0.050000 -0.320988
v -0.500000 -0.050000 -0.500000
v -0.500000 0.050000 -0.500000
v 0.500000 -0.050000 -0.084362
v 0.500000 0.050000 -0.084362
v 0.500000 -0.050000 0.084362
v 0.500000 0.050000 0.084362
v -0.500000 -0.050000 0.500000
v -0.500000 0.050000 0.500000
vn 0.0000 1.0000 0.0000
vn 0.0000 -1.0000 0.0000
vn -0.8292 0.0000 -0.5589
vn -1.0000 0.0000 0.0000
vn -0.8292 0.0000 0.5589
vn -0.5550 0.0000 -0.8318
vn 0.8318 0.0000 -0.5550
vn 0.8318 0.0000 0.5550
vn -0.5550 0.0000 0.8318
usemtl None
s off
f 3//1 5//1 4//1
f 2//1 5//1 3//1
f 2//1 6//1 5//1
f 1//1 6//1 2//1
f 1//1 7//1 6//1
f 12//2 10//2 11//2
f 12//2 9//2 10//2
f 13//2 9//2 12//2
f 13//2 8//2 9//2
f 14//2 8//2 13//2
s 1
f 16//3 18//4 17//4 15//3
f 18//4 20//5 19//5 17//4
f 20//5 22//6 21//6 19//5
f 22//6 24//7 23//7 21//6
f 24//7 26//8 25//8 23//7
f 26//8 28//9 27//9 25//8
f 28//9 16//3 15//3 27//9
