# Blender v2.79 (sub 0) OBJ File: 'stair_down.blend'
# www.blender.org
mtllib stair_down.mtl
o Text_CUText
v 0.500000 0.000000 0.084362
v 0.500000 0.000000 -0.084362
v -0.500000 0.000000 -0.500000
v -0.500000 0.000000 -0.320988
v 0.293249 0.000000 0.000000
v -0.500000 0.000000 0.320988
v -0.500000 0.000000 0.500000
vt 0.000000 0.000000
vt 1.000000 0.000000
vt 1.000000 1.000000
vt 0.000000 0.000000
vt 1.000000 1.000000
vt 1.000000 0.000000
vt 1.000000 1.000000
vt 0.000000 0.000000
vt 1.000000 1.000000
vt 1.000000 0.000000
vt 1.000000 1.000000
vn 0.0000 1.0000 0.0000
usemtl Material.001
s off
f 4/1/1 2/2/1 3/3/1
f 5/4/1 2/2/1 4/5/1
f 5/4/1 1/6/1 2/7/1
f 6/8/1 1/6/1 5/9/1
f 6/8/1 7/10/1 1/11/1
