# Blender v2.79 (sub 0) OBJ File: 'stair_up.blend'
# www.blender.org
mtllib stair_up.mtl
o Text
v -0.085132 0.050000 -0.500000
v 0.085132 0.050000 -0.500000
v 0.500000 0.050000 0.500000
v 0.286571 0.050000 0.500000
v -0.001199 0.050000 -0.246803
v -0.284173 0.050000 0.500000
v -0.500000 0.050000 0.500000
v -0.085132 -0.050000 -0.500000
v 0.085132 -0.050000 -0.500000
v 0.500000 -0.050000 0.500000
v 0.286571 -0.050000 0.500000
v -0.001199 -0.050000 -0.246803
v -0.284173 -0.050000 0.500000
v -0.500000 -0.050000 0.500000
v -0.085132 -0.050000 -0.500000
v -0.085132 0.050000 -0.500000
v 0.085132 -0.050000 -0.500000
v 0.085132 0.050000 -0.500000
v 0.500000 -0.050000 0.500000
v 0.500000 0.050000 0.500000
v 0.286571 -0.050000 0.500000
v 0.286571 0.050000 0.500000
v -0.001199 -0.050000 -0.246803
v -0.001199 0.050000 -0.246803
v -0.284173 -0.050000 0.500000
v -0.284173 0.050000 0.500000
v -0.500000 -0.050000 0.500000
v -0.500000 0.050000 0.500000
vn 0.0000 1.0000 -0.0000
vn 0.0000 -1.0000 -0.0000
vn -0.5553 0.0000 -0.8316
vn 0.5553 0.0000 -0.8316
vn 0.8316 0.0000 0.5553
vn -0.5659 0.0000 0.8245
vn 0.0028 0.0000 1.0000
vn 0.5682 0.0000 0.8229
vn -0.8316 0.0000 0.5553
usemtl Material.001
s off
f 7//1 2//1 1//1
f 7//1 5//1 2//1
f 5//1 3//1 2//1
f 7//1 6//1 5//1
f 4//1 3//1 5//1
f 9//2 14//2 8//2
f 12//2 14//2 9//2
f 10//2 12//2 9//2
f 13//2 14//2 12//2
f 10//2 11//2 12//2
s 1
f 16//3 18//4 17//4 15//3
f 18//4 20//5 19//5 17//4
f 20//5 22//6 21//6 19//5
f 22//6 24//7 23//7 21//6
f 24//7 26//8 25//8 23//7
f 26//8 28//9 27//9 25//8
f 28//9 16//3 15//3 27//9
