# Blender v2.79 (sub 0) OBJ File: 'star.blend'
# www.blender.org
mtllib star.mtl
o Text
v -0.279070 0.100000 0.500000
v -0.376744 0.100000 0.432584
v -0.125581 0.100000 0.061798
v -0.502326 0.100000 -0.095506
v -0.465116 0.100000 -0.198876
v -0.076744 0.100000 -0.075281
v -0.055814 0.100000 -0.500000
v 0.055814 0.100000 -0.500000
v 0.076744 0.100000 -0.075281
v 0.465116 0.100000 -0.198876
v 0.502326 0.100000 -0.095506
v 0.125581 0.100000 0.061798
v 0.376744 0.100000 0.432584
v 0.279070 0.100000 0.500000
v 0.000000 0.100000 0.142697
v -0.279070 -0.100000 0.500000
v -0.376744 -0.100000 0.432584
v -0.125581 -0.100000 0.061798
v -0.502326 -0.100000 -0.095506
v -0.465116 -0.100000 -0.198876
v -0.076744 -0.100000 -0.075281
v -0.055814 -0.100000 -0.500000
v 0.055814 -0.100000 -0.500000
v 0.076744 -0.100000 -0.075281
v 0.465116 -0.100000 -0.198876
v 0.502326 -0.100000 -0.095506
v 0.125581 -0.100000 0.061798
v 0.376744 -0.100000 0.432584
v 0.279070 -0.100000 0.500000
v 0.000000 -0.100000 0.142697
v -0.279070 -0.100000 0.500000
v -0.279070 0.100000 0.500000
v -0.376744 -0.100000 0.432584
v -0.376744 0.100000 0.432584
v -0.125581 -0.100000 0.061798
v -0.125581 0.100000 0.061798
v -0.502326 -0.100000 -0.095506
v -0.502326 0.100000 -0.095506
v -0.465116 -0.100000 -0.198876
v -0.465116 0.100000 -0.198876
v -0.076744 -0.100000 -0.075281
v -0.076744 0.100000 -0.075281
v -0.055814 -0.100000 -0.500000
v -0.055814 0.100000 -0.500000
v 0.055814 -0.100000 -0.500000
v 0.055814 0.100000 -0.500000
v 0.076744 -0.100000 -0.075281
v 0.076744 0.100000 -0.075281
v 0.465116 -0.100000 -0.198876
v 0.465116 0.100000 -0.198876
v 0.502326 -0.100000 -0.095506
v 0.502326 0.100000 -0.095506
v 0.125581 -0.100000 0.061798
v 0.125581 0.100000 0.061798
v 0.376744 -0.100000 0.432584
v 0.376744 0.100000 0.432584
v 0.279070 -0.100000 0.500000
v 0.279070 0.100000 0.500000
v 0.000000 -0.100000 0.142697
v 0.000000 0.100000 0.142697
vn 0.0000 1.0000 0.0000
vn 0.0000 -1.0000 -0.0000
vn 0.1512 0.0000 0.9885
vn -0.9828 0.0000 0.1846
vn -0.9583 0.0000 0.2859
vn -0.9152 0.0000 0.4031
vn -0.4427 0.0000 -0.8967
vn -0.5702 0.0000 -0.8215
vn -0.6895 0.0000 -0.7243
vn 0.6895 0.0000 -0.7243
vn 0.5702 0.0000 -0.8215
vn 0.4427 0.0000 -0.8967
vn 0.9152 0.0000 0.4031
vn 0.9583 0.0000 0.2859
vn 0.9828 0.0000 0.1846
vn -0.1512 0.0000 0.9885
vn 0.0000 0.0000 1.0000
usemtl Material.001
s off
f 6//1 8//1 7//1
f 6//1 9//1 8//1
f 4//1 6//1 5//1
f 9//1 11//1 10//1
f 3//1 6//1 4//1
f 9//1 12//1 11//1
f 3//1 9//1 6//1
f 3//1 12//1 9//1
f 2//1 15//1 3//1
f 15//1 12//1 3//1
f 15//1 13//1 12//1
f 2//1 1//1 15//1
f 14//1 13//1 15//1
f 23//2 21//2 22//2
f 24//2 21//2 23//2
f 21//2 19//2 20//2
f 26//2 24//2 25//2
f 21//2 18//2 19//2
f 27//2 24//2 26//2
f 24//2 18//2 21//2
f 27//2 18//2 24//2
f 30//2 17//2 18//2
f 27//2 30//2 18//2
f 28//2 30//2 27//2
f 16//2 17//2 30//2
f 28//2 29//2 30//2
s 1
f 32//3 34//4 33//4 31//3
f 34//4 36//5 35//5 33//4
f 36//5 38//6 37//6 35//5
f 38//6 40//7 39//7 37//6
f 40//7 42//8 41//8 39//7
f 42//8 44//9 43//9 41//8
f 44//9 46//10 45//10 43//9
f 46//10 48//11 47//11 45//10
f 48//11 50//12 49//12 47//11
f 50//12 52//13 51//13 49//12
f 52//13 54//14 53//14 51//13
f 54//14 56//15 55//15 53//14
f 56//15 58//16 57//16 55//15
f 58//16 60//17 59//17 57//16
f 60//17 32//3 31//3 59//17
