# Blender v2.79 (sub 0) OBJ File: 'T.blend'
# www.blender.org
mtllib T.mtl
o Text
v 0.049000 0.253000 0.010000
v 0.049000 -0.341000 0.010000
v -0.049000 -0.341000 0.010000
v -0.049000 0.253000 0.010000
v -0.285000 0.253000 0.010000
v -0.285000 0.341000 0.010000
v 0.285000 0.341000 0.010000
v 0.285000 0.253000 0.010000
v 0.049000 0.253000 -0.010000
v 0.049000 -0.341000 -0.010000
v -0.049000 -0.341000 -0.010000
v -0.049000 0.253000 -0.010000
v -0.285000 0.253000 -0.010000
v -0.285000 0.341000 -0.010000
v 0.285000 0.341000 -0.010000
v 0.285000 0.253000 -0.010000
v 0.049000 0.253000 -0.010000
v 0.049000 0.253000 0.010000
v 0.049000 -0.341000 -0.010000
v 0.049000 -0.341000 0.010000
v -0.049000 -0.341000 -0.010000
v -0.049000 -0.341000 0.010000
v -0.049000 0.253000 -0.010000
v -0.049000 0.253000 0.010000
v -0.285000 0.253000 -0.010000
v -0.285000 0.253000 0.010000
v -0.285000 0.341000 -0.010000
v -0.285000 0.341000 0.010000
v 0.285000 0.341000 -0.010000
v 0.285000 0.341000 0.010000
v 0.285000 0.253000 -0.010000
v 0.285000 0.253000 0.010000
vn 0.0000 -0.0000 1.0000
vn 0.0000 0.0000 -1.0000
vn 0.7071 -0.7071 0.0000
vn -0.7071 -0.7071 0.0000
vn -0.7071 0.7071 0.0000
vn 0.7071 0.7071 0.0000
usemtl Material.001
s off
f 5//1 7//1 6//1
f 5//1 8//1 7//1
f 4//1 8//1 5//1
f 3//1 1//1 4//1
f 1//1 8//1 4//1
f 3//1 2//1 1//1
f 15//2 13//2 14//2
f 16//2 13//2 15//2
f 16//2 12//2 13//2
f 9//2 11//2 12//2
f 16//1 9//1 12//1
f 10//2 11//2 9//2
s 1
f 20//3 17//3 18//3
f 22//4 19//3 20//3
f 22//4 23//4 21//4
f 26//4 23//4 24//4
f 28//5 25//4 26//4
f 30//6 27//5 28//5
f 32//3 29//6 30//6
f 18//3 31//3 32//3
f 20//3 19//3 17//3
f 22//4 21//4 19//3
f 22//4 24//4 23//4
f 26//4 25//4 23//4
f 28//5 27//5 25//4
f 30//6 29//6 27//5
f 32//3 31//3 29//6
f 18//3 17//3 31//3
