# Blender v2.79 (sub 0) OBJ File: 'T.blend'
# www.blender.org
mtllib T.mtl
o Text_CUText
v 0.049000 0.253000 0.010000
v 0.049000 -0.341000 0.010000
v -0.049000 -0.341000 0.010000
v -0.049000 0.253000 0.010000
v -0.285000 0.253000 0.010000
v -0.285000 0.341000 0.010000
v 0.285000 0.341000 0.010000
v 0.285000 0.253000 0.010000
v 0.049000 0.253000 -0.010000
v 0.049000 -0.341000 -0.010000
v -0.049000 -0.341000 -0.010000
v -0.049000 0.253000 -0.010000
v -0.285000 0.253000 -0.010000
v -0.285000 0.341000 -0.010000
v 0.285000 0.341000 -0.010000
v 0.285000 0.253000 -0.010000
v 0.049000 0.253000 -0.010000
v 0.049000 0.253000 0.010000
v 0.049000 -0.341000 -0.010000
v 0.049000 -0.341000 0.010000
v -0.049000 -0.341000 -0.010000
v -0.049000 -0.341000 0.010000
v -0.049000 0.253000 -0.010000
v -0.049000 0.253000 0.010000
v -0.285000 0.253000 -0.010000
v -0.285000 0.253000 0.010000
v -0.285000 0.341000 -0.010000
v -0.285000 0.341000 0.010000
v 0.285000 0.341000 -0.010000
v 0.285000 0.341000 0.010000
v 0.285000 0.253000 -0.010000
v 0.285000 0.253000 0.010000
vt 0.601695 0.959596
vt 0.788135 0.000000
vt 0.788135 0.959596
vt 0.601694 0.000000
vt 0.000000 0.000000
vt 0.000000 0.000000
vt 0.000000 0.000000
vt 0.207627 0.000000
vt 0.415254 1.000000
vt 0.207627 1.000000
vt 0.000000 0.000000
vt 0.415254 0.000000
vt 0.415254 0.000000
vt 0.601695 0.959596
vt 0.415254 0.959596
vt 0.601694 0.000000
vt 0.000000 0.000000
vt 0.000000 0.000000
vt 0.000000 0.000000
vt 0.207627 0.000000
vt 0.000000 1.000000
vt 0.000000 0.000000
vt 0.207627 1.000000
vt 0.788135 1.000000
vt 0.788135 0.000000
vt 0.830508 0.000000
vt 0.830508 1.000000
vt 1.000000 0.000000
vt 1.000000 0.164983
vt 0.957627 0.164983
vt 0.957627 0.000000
vt 0.830508 1.000000
vt 0.830508 0.000000
vt 0.872881 0.000000
vt 0.872881 1.000000
vt 0.957627 0.000000
vt 0.957627 0.397306
vt 0.915254 0.397306
vt 0.915254 0.000000
vt 0.957627 0.461279
vt 0.957627 0.313131
vt 1.000000 0.313131
vt 1.000000 0.461279
vt 0.872881 0.959596
vt 0.872881 0.000000
vt 0.915254 0.000000
vt 0.915254 0.959596
vt 0.957627 0.313131
vt 0.957627 0.164983
vt 1.000000 0.164983
vt 1.000000 0.313131
vt 0.957627 0.397306
vt 0.957627 0.794613
vt 0.915254 0.794613
vt 0.915254 0.397306
vn 0.0000 -0.0000 1.0000
vn 0.0000 0.0000 -1.0000
vn 0.7071 -0.7071 0.0000
vn -0.7071 -0.7071 0.0000
vn -0.7071 0.7071 0.0000
vn 0.7071 0.7071 0.0000
usemtl Material.001
s off
f 5/1/1 7/2/1 6/3/1
f 5/1/1 8/4/1 7/2/1
f 4/5/1 8/6/1 5/7/1
f 3/8/1 1/9/1 4/10/1
f 1/11/1 8/6/1 4/5/1
f 3/8/1 2/12/1 1/9/1
f 15/13/2 13/14/2 14/15/2
f 16/16/2 13/14/2 15/13/2
f 16/17/2 12/18/2 13/19/2
f 9/20/2 11/21/2 12/18/2
f 16/17/1 9/22/1 12/18/1
f 10/23/2 11/21/2 9/20/2
s 1
f 18/24/3 20/25/3 19/26/3 17/27/3
f 20/28/3 22/29/4 21/30/4 19/31/3
f 22/32/4 24/33/4 23/34/4 21/35/4
f 24/36/4 26/37/4 25/38/4 23/39/4
f 26/40/4 28/41/5 27/42/5 25/43/4
f 28/44/5 30/45/6 29/46/6 27/47/5
f 30/48/6 32/49/3 31/50/3 29/51/6
f 32/52/3 18/53/3 17/54/3 31/55/3
