# Blender v2.79 (sub 0) OBJ File: 'tick.blend'
# www.blender.org
mtllib tick.mtl
o Text_CUText
v -0.123256 0.000000 -0.546460
v -0.127907 0.000000 -0.789823
v 0.127907 0.000000 -0.789823
v 0.123256 0.000000 -0.546460
v 0.065116 0.000000 -0.048673
v -0.065116 0.000000 -0.048673
vt 0.000000 0.000000
vt 1.000000 0.000000
vt 1.000000 1.000000
vt 1.000000 0.000000
vt 1.000000 1.000000
vt 0.000000 0.000000
vt 1.000000 1.000000
vt 1.000000 0.000000
vt 1.000000 1.000000
vn 0.0000 1.0000 0.0000
usemtl Material.001
s off
f 1/1/1 3/2/1 2/3/1
f 1/1/1 4/4/1 3/5/1
f 6/6/1 4/4/1 1/7/1
f 6/6/1 5/8/1 4/9/1
