# Blender v2.79 (sub 0) OBJ File: 'tilde.blend'
# www.blender.org
mtllib tilde.mtl
o Text
v -0.479564 0.050000 -0.036573
v -0.458472 0.050000 -0.050065
v -0.436770 0.050000 -0.062800
v -0.414503 0.050000 -0.074668
v -0.391717 0.050000 -0.085555
v -0.368458 0.050000 -0.095353
v -0.344770 0.050000 -0.103948
v -0.320699 0.050000 -0.111230
v -0.296291 0.050000 -0.117087
v -0.271591 0.050000 -0.121409
v -0.246643 0.050000 -0.124084
v -0.221495 0.050000 -0.125000
v -0.202262 0.050000 -0.124383
v -0.182892 0.050000 -0.122604
v -0.163405 0.050000 -0.119767
v -0.143821 0.050000 -0.115978
v -0.124160 0.050000 -0.111344
v -0.104439 0.050000 -0.105970
v -0.084680 0.050000 -0.099961
v -0.064901 0.050000 -0.093424
v -0.045123 0.050000 -0.086463
v -0.025363 0.050000 -0.079186
v -0.005643 0.050000 -0.071697
v 0.014019 0.050000 -0.064103
v 0.033603 0.050000 -0.056508
v 0.053089 0.050000 -0.049019
v 0.072459 0.050000 -0.041742
v 0.091693 0.050000 -0.034782
v 0.110770 0.050000 -0.028244
v 0.129673 0.050000 -0.022236
v 0.148381 0.050000 -0.016861
v 0.166874 0.050000 -0.012227
v 0.185134 0.050000 -0.008439
v 0.203141 0.050000 -0.005602
v 0.220876 0.050000 -0.003822
v 0.238318 0.050000 -0.003205
v 0.259208 0.050000 -0.004247
v 0.280677 0.050000 -0.007263
v 0.302599 0.050000 -0.012094
v 0.324853 0.050000 -0.018578
v 0.347314 0.050000 -0.026553
v 0.369860 0.050000 -0.035857
v 0.392367 0.050000 -0.046331
v 0.414711 0.050000 -0.057811
v 0.436770 0.050000 -0.070137
v 0.458420 0.050000 -0.083148
v 0.479538 0.050000 -0.096682
v 0.500000 0.050000 -0.110577
v 0.500000 0.050000 0.022436
v 0.480388 0.050000 0.036237
v 0.459926 0.050000 0.049509
v 0.438697 0.050000 0.062124
v 0.416788 0.050000 0.073955
v 0.394281 0.050000 0.084874
v 0.371262 0.050000 0.094752
v 0.347814 0.050000 0.103461
v 0.324022 0.050000 0.110874
v 0.299971 0.050000 0.116862
v 0.275744 0.050000 0.121298
v 0.251427 0.050000 0.124053
v 0.227103 0.050000 0.125000
v 0.208691 0.050000 0.124383
v 0.189936 0.050000 0.122604
v 0.170882 0.050000 0.119767
v 0.151575 0.050000 0.115978
v 0.132060 0.050000 0.111344
v 0.112383 0.050000 0.105970
v 0.092589 0.050000 0.099961
v 0.072724 0.050000 0.093424
v 0.052833 0.050000 0.086463
v 0.032961 0.050000 0.079186
v 0.013154 0.050000 0.071697
v -0.006542 0.050000 0.064103
v -0.026592 0.050000 0.056508
v -0.046539 0.050000 0.049019
v -0.066355 0.050000 0.041742
v -0.086016 0.050000 0.034782
v -0.105495 0.050000 0.028244
v -0.124766 0.050000 0.022236
v -0.143804 0.050000 0.016861
v -0.162582 0.050000 0.012227
v -0.181075 0.050000 0.008439
v -0.199256 0.050000 0.005602
v -0.217099 0.050000 0.003822
v -0.234579 0.050000 0.003205
v -0.257328 0.050000 0.004185
v -0.279811 0.050000 0.007041
v -0.302074 0.050000 0.011644
v -0.324161 0.050000 0.017866
v -0.346118 0.050000 0.025579
v -0.367991 0.050000 0.034655
v -0.389825 0.050000 0.044967
v -0.411665 0.050000 0.056387
v -0.433557 0.050000 0.068785
v -0.455547 0.050000 0.082035
v -0.477679 0.050000 0.096008
v -0.500000 0.050000 0.110577
v -0.500000 0.050000 -0.022436
v -0.479564 -0.050000 -0.036573
v -0.458472 -0.050000 -0.050065
v -0.436770 -0.050000 -0.062800
v -0.414503 -0.050000 -0.074668
v -0.391717 -0.050000 -0.085555
v -0.368458 -0.050000 -0.095353
v -0.344770 -0.050000 -0.103948
v -0.320699 -0.050000 -0.111230
v -0.296291 -0.050000 -0.117087
v -0.271591 -0.050000 -0.121409
v -0.246643 -0.050000 -0.124084
v -0.221495 -0.050000 -0.125000
v -0.202262 -0.050000 -0.124383
v -0.182892 -0.050000 -0.122604
v -0.163405 -0.050000 -0.119767
v -0.143821 -0.050000 -0.115978
v -0.124160 -0.050000 -0.111344
v -0.104439 -0.050000 -0.105970
v -0.084680 -0.050000 -0.099961
v -0.064901 -0.050000 -0.093424
v -0.045123 -0.050000 -0.086463
v -0.025363 -0.050000 -0.079186
v -0.005643 -0.050000 -0.071697
v 0.014019 -0.050000 -0.064103
v 0.033603 -0.050000 -0.056508
v 0.053089 -0.050000 -0.049019
v 0.072459 -0.050000 -0.041742
v 0.091693 -0.050000 -0.034782
v 0.110770 -0.050000 -0.028244
v 0.129673 -0.050000 -0.022236
v 0.148381 -0.050000 -0.016861
v 0.166874 -0.050000 -0.012227
v 0.185134 -0.050000 -0.008439
v 0.203141 -0.050000 -0.005602
v 0.220876 -0.050000 -0.003822
v 0.238318 -0.050000 -0.003205
v 0.259208 -0.050000 -0.004247
v 0.280677 -0.050000 -0.007263
v 0.302599 -0.050000 -0.012094
v 0.324853 -0.050000 -0.018578
v 0.347314 -0.050000 -0.026553
v 0.369860 -0.050000 -0.035857
v 0.392367 -0.050000 -0.046331
v 0.414711 -0.050000 -0.057811
v 0.436770 -0.050000 -0.070137
v 0.458420 -0.050000 -0.083148
v 0.479538 -0.050000 -0.096682
v 0.500000 -0.050000 -0.110577
v 0.500000 -0.050000 0.022436
v 0.480388 -0.050000 0.036237
v 0.459926 -0.050000 0.049509
v 0.438697 -0.050000 0.062124
v 0.416788 -0.050000 0.073955
v 0.394281 -0.050000 0.084874
v 0.371262 -0.050000 0.094752
v 0.347814 -0.050000 0.103461
v 0.324022 -0.050000 0.110874
v 0.299971 -0.050000 0.116862
v 0.275744 -0.050000 0.121298
v 0.251427 -0.050000 0.124053
v 0.227103 -0.050000 0.125000
v 0.208691 -0.050000 0.124383
v 0.189936 -0.050000 0.122604
v 0.170882 -0.050000 0.119767
v 0.151575 -0.050000 0.115978
v 0.132060 -0.050000 0.111344
v 0.112383 -0.050000 0.105970
v 0.092589 -0.050000 0.099961
v 0.072724 -0.050000 0.093424
v 0.052833 -0.050000 0.086463
v 0.032961 -0.050000 0.079186
v 0.013154 -0.050000 0.071697
v -0.006542 -0.050000 0.064103
v -0.026592 -0.050000 0.056508
v -0.046539 -0.050000 0.049019
v -0.066355 -0.050000 0.041742
v -0.086016 -0.050000 0.034782
v -0.105495 -0.050000 0.028244
v -0.124766 -0.050000 0.022236
v -0.143804 -0.050000 0.016861
v -0.162582 -0.050000 0.012227
v -0.181075 -0.050000 0.008439
v -0.199256 -0.050000 0.005602
v -0.217099 -0.050000 0.003822
v -0.234579 -0.050000 0.003205
v -0.257328 -0.050000 0.004185
v -0.279811 -0.050000 0.007041
v -0.302074 -0.050000 0.011644
v -0.324161 -0.050000 0.017866
v -0.346118 -0.050000 0.025579
v -0.367991 -0.050000 0.034655
v -0.389825 -0.050000 0.044967
v -0.411665 -0.050000 0.056387
v -0.433557 -0.050000 0.068785
v -0.455547 -0.050000 0.082035
v -0.477679 -0.050000 0.096008
v -0.500000 -0.050000 0.110577
v -0.500000 -0.050000 -0.022436
v -0.479564 -0.050000 -0.036573
v -0.479564 0.050000 -0.036573
v -0.458472 -0.050000 -0.050065
v -0.458472 0.050000 -0.050065
v -0.436770 -0.050000 -0.062800
v -0.436770 0.050000 -0.062800
v -0.414503 -0.050000 -0.074668
v -0.414503 0.050000 -0.074668
v -0.391717 -0.050000 -0.085555
v -0.391717 0.050000 -0.085555
v -0.368458 -0.050000 -0.095353
v -0.368458 0.050000 -0.095353
v -0.344770 -0.050000 -0.103948
v -0.344770 0.050000 -0.103948
v -0.320699 -0.050000 -0.111230
v -0.320699 0.050000 -0.111230
v -0.296291 -0.050000 -0.117087
v -0.296291 0.050000 -0.117087
v -0.271591 -0.050000 -0.121409
v -0.271591 0.050000 -0.121409
v -0.246643 -0.050000 -0.124084
v -0.246643 0.050000 -0.124084
v -0.221495 -0.050000 -0.125000
v -0.221495 0.050000 -0.125000
v -0.202262 -0.050000 -0.124383
v -0.202262 0.050000 -0.124383
v -0.182892 -0.050000 -0.122604
v -0.182892 0.050000 -0.122604
v -0.163405 -0.050000 -0.119767
v -0.163405 0.050000 -0.119767
v -0.143821 -0.050000 -0.115978
v -0.143821 0.050000 -0.115978
v -0.124160 -0.050000 -0.111344
v -0.124160 0.050000 -0.111344
v -0.104439 -0.050000 -0.105970
v -0.104439 0.050000 -0.105970
v -0.084680 -0.050000 -0.099961
v -0.084680 0.050000 -0.099961
v -0.064901 -0.050000 -0.093424
v -0.064901 0.050000 -0.093424
v -0.045123 -0.050000 -0.086463
v -0.045123 0.050000 -0.086463
v -0.025363 -0.050000 -0.079186
v -0.025363 0.050000 -0.079186
v -0.005643 -0.050000 -0.071697
v -0.005643 0.050000 -0.071697
v 0.014019 -0.050000 -0.064103
v 0.014019 0.050000 -0.064103
v 0.033603 -0.050000 -0.056508
v 0.033603 0.050000 -0.056508
v 0.053089 -0.050000 -0.049019
v 0.053089 0.050000 -0.049019
v 0.072459 -0.050000 -0.041742
v 0.072459 0.050000 -0.041742
v 0.091693 -0.050000 -0.034782
v 0.091693 0.050000 -0.034782
v 0.110770 -0.050000 -0.028244
v 0.110770 0.050000 -0.028244
v 0.129673 -0.050000 -0.022236
v 0.129673 0.050000 -0.022236
v 0.148381 -0.050000 -0.016861
v 0.148381 0.050000 -0.016861
v 0.166874 -0.050000 -0.012227
v 0.166874 0.050000 -0.012227
v 0.185134 -0.050000 -0.008439
v 0.185134 0.050000 -0.008439
v 0.203141 -0.050000 -0.005602
v 0.203141 0.050000 -0.005602
v 0.220876 -0.050000 -0.003822
v 0.220876 0.050000 -0.003822
v 0.238318 -0.050000 -0.003205
v 0.238318 0.050000 -0.003205
v 0.259208 -0.050000 -0.004247
v 0.259208 0.050000 -0.004247
v 0.280677 -0.050000 -0.007263
v 0.280677 0.050000 -0.007263
v 0.302599 -0.050000 -0.012094
v 0.302599 0.050000 -0.012094
v 0.324853 -0.050000 -0.018578
v 0.324853 0.050000 -0.018578
v 0.347314 -0.050000 -0.026553
v 0.347314 0.050000 -0.026553
v 0.369860 -0.050000 -0.035857
v 0.369860 0.050000 -0.035857
v 0.392367 -0.050000 -0.046331
v 0.392367 0.050000 -0.046331
v 0.414711 -0.050000 -0.057811
v 0.414711 0.050000 -0.057811
v 0.436770 -0.050000 -0.070137
v 0.436770 0.050000 -0.070137
v 0.458420 -0.050000 -0.083148
v 0.458420 0.050000 -0.083148
v 0.479538 -0.050000 -0.096682
v 0.479538 0.050000 -0.096682
v 0.500000 -0.050000 -0.110577
v 0.500000 0.050000 -0.110577
v 0.500000 -0.050000 0.022436
v 0.500000 0.050000 0.022436
v 0.480388 -0.050000 0.036237
v 0.480388 0.050000 0.036237
v 0.459926 -0.050000 0.049509
v 0.459926 0.050000 0.049509
v 0.438697 -0.050000 0.062124
v 0.438697 0.050000 0.062124
v 0.416788 -0.050000 0.073955
v 0.416788 0.050000 0.073955
v 0.394281 -0.050000 0.084874
v 0.394281 0.050000 0.084874
v 0.371262 -0.050000 0.094752
v 0.371262 0.050000 0.094752
v 0.347814 -0.050000 0.103461
v 0.347814 0.050000 0.103461
v 0.324022 -0.050000 0.110874
v 0.324022 0.050000 0.110874
v 0.299971 -0.050000 0.116862
v 0.299971 0.050000 0.116862
v 0.275744 -0.050000 0.121298
v 0.275744 0.050000 0.121298
v 0.251427 -0.050000 0.124053
v 0.251427 0.050000 0.124053
v 0.227103 -0.050000 0.125000
v 0.227103 0.050000 0.125000
v 0.208691 -0.050000 0.124383
v 0.208691 0.050000 0.124383
v 0.189936 -0.050000 0.122604
v 0.189936 0.050000 0.122604
v 0.170882 -0.050000 0.119767
v 0.170882 0.050000 0.119767
v 0.151575 -0.050000 0.115978
v 0.151575 0.050000 0.115978
v 0.132060 -0.050000 0.111344
v 0.132060 0.050000 0.111344
v 0.112383 -0.050000 0.105970
v 0.112383 0.050000 0.105970
v 0.092589 -0.050000 0.099961
v 0.092589 0.050000 0.099961
v 0.072724 -0.050000 0.093424
v 0.072724 0.050000 0.093424
v 0.052833 -0.050000 0.086463
v 0.052833 0.050000 0.086463
v 0.032961 -0.050000 0.079186
v 0.032961 0.050000 0.079186
v 0.013154 -0.050000 0.071697
v 0.013154 0.050000 0.071697
v -0.006542 -0.050000 0.064103
v -0.006542 0.050000 0.064103
v -0.026592 -0.050000 0.056508
v -0.026592 0.050000 0.056508
v -0.046539 -0.050000 0.049019
v -0.046539 0.050000 0.049019
v -0.066355 -0.050000 0.041742
v -0.066355 0.050000 0.041742
v -0.086016 -0.050000 0.034782
v -0.086016 0.050000 0.034782
v -0.105495 -0.050000 0.028244
v -0.105495 0.050000 0.028244
v -0.124766 -0.050000 0.022236
v -0.124766 0.050000 0.022236
v -0.143804 -0.050000 0.016861
v -0.143804 0.050000 0.016861
v -0.162582 -0.050000 0.012227
v -0.162582 0.050000 0.012227
v -0.181075 -0.050000 0.008439
v -0.181075 0.050000 0.008439
v -0.199256 -0.050000 0.005602
v -0.199256 0.050000 0.005602
v -0.217099 -0.050000 0.003822
v -0.217099 0.050000 0.003822
v -0.234579 -0.050000 0.003205
v -0.234579 0.050000 0.003205
v -0.257328 -0.050000 0.004185
v -0.257328 0.050000 0.004185
v -0.279811 -0.050000 0.007041
v -0.279811 0.050000 0.007041
v -0.302074 -0.050000 0.011644
v -0.302074 0.050000 0.011644
v -0.324161 -0.050000 0.017866
v -0.324161 0.050000 0.017866
v -0.346118 -0.050000 0.025579
v -0.346118 0.050000 0.025579
v -0.367991 -0.050000 0.034655
v -0.367991 0.050000 0.034655
v -0.389825 -0.050000 0.044967
v -0.389825 0.050000 0.044967
v -0.411665 -0.050000 0.056387
v -0.411665 0.050000 0.056387
v -0.433557 -0.050000 0.068785
v -0.433557 0.050000 0.068785
v -0.455547 -0.050000 0.082035
v -0.455547 0.050000 0.082035
v -0.477679 -0.050000 0.096008
v -0.477679 0.050000 0.096008
v -0.500000 -0.050000 0.110577
v -0.500000 0.050000 0.110577
v -0.500000 -0.050000 -0.022436
v -0.500000 0.050000 -0.022436
vn 0.0000 1.0000 0.0000
vn 0.0000 -1.0000 0.0000
vn -0.5540 0.0000 -0.8325
vn -0.5226 0.0000 -0.8526
vn -0.4883 0.0000 -0.8726
vn -0.4508 0.0000 -0.8926
vn -0.4098 0.0000 -0.9122
vn -0.3647 0.0000 -0.9311
vn -0.3154 0.0000 -0.9489
vn -0.2615 0.0000 -0.9652
vn -0.2029 0.0000 -0.9792
vn -0.1395 0.0000 -0.9902
vn -0.0715 0.0000 -0.9974
vn -0.0022 0.0000 -1.0000
vn 0.0618 0.0000 -0.9981
vn 0.1178 0.0000 -0.9930
vn 0.1670 0.0000 -0.9859
vn 0.2097 0.0000 -0.9778
vn 0.2462 0.0000 -0.9692
vn 0.2770 0.0000 -0.9609
vn 0.3024 0.0000 -0.9532
vn 0.3229 0.0000 -0.9464
vn 0.3388 0.0000 -0.9409
vn 0.3503 0.0000 -0.9366
vn 0.3576 0.0000 -0.9338
vn 0.3609 0.0000 -0.9326
vn 0.3601 0.0000 -0.9329
vn 0.3552 0.0000 -0.9348
vn 0.3460 0.0000 -0.9382
vn 0.3322 0.0000 -0.9432
vn 0.3135 0.0000 -0.9496
vn 0.2895 0.0000 -0.9572
vn 0.2596 0.0000 -0.9657
vn 0.2232 0.0000 -0.9748
vn 0.1794 0.0000 -0.9838
vn 0.1278 0.0000 -0.9918
vn 0.0676 0.0000 -0.9977
vn -0.0072 0.0000 -1.0000
vn -0.0945 0.0000 -0.9955
vn -0.1773 0.0000 -0.9841
vn -0.2476 0.0000 -0.9688
vn -0.3073 0.0000 -0.9516
vn -0.3581 0.0000 -0.9337
vn -0.4018 0.0000 -0.9157
vn -0.4395 0.0000 -0.8982
vn -0.4725 0.0000 -0.8813
vn -0.5015 0.0000 -0.8651
vn -0.5274 0.0000 -0.8496
vn -0.5507 0.0000 -0.8347
vn 0.4681 0.0000 -0.8837
vn 0.8875 0.0000 0.4607
vn 0.5599 0.0000 0.8285
vn 0.5276 0.0000 0.8495
vn 0.4931 0.0000 0.8700
vn 0.4559 0.0000 0.8900
vn 0.4155 0.0000 0.9096
vn 0.3713 0.0000 0.9285
vn 0.3229 0.0000 0.9464
vn 0.2696 0.0000 0.9630
vn 0.2109 0.0000 0.9775
vn 0.1464 0.0000 0.9892
vn 0.0758 0.0000 0.9971
vn 0.0027 0.0000 1.0000
vn -0.0640 0.0000 0.9979
vn -0.1209 0.0000 0.9926
vn -0.1699 0.0000 0.9854
vn -0.2118 0.0000 0.9773
vn -0.2473 0.0000 0.9689
vn -0.2770 0.0000 0.9608
vn -0.3016 0.0000 0.9534
vn -0.3214 0.0000 0.9469
vn -0.3371 0.0000 0.9415
vn -0.3488 0.0000 0.9372
vn -0.3567 0.0000 0.9342
vn -0.3570 0.0000 0.9341
vn -0.3529 0.0000 0.9357
vn -0.3481 0.0000 0.9374
vn -0.3392 0.0000 0.9407
vn -0.3259 0.0000 0.9454
vn -0.3079 0.0000 0.9514
vn -0.2847 0.0000 0.9586
vn -0.2557 0.0000 0.9667
vn -0.2202 0.0000 0.9754
vn -0.1775 0.0000 0.9841
vn -0.1267 0.0000 0.9919
vn -0.0673 0.0000 0.9977
vn 0.0039 0.0000 1.0000
vn 0.0846 0.0000 0.9964
vn 0.1643 0.0000 0.9864
vn 0.2369 0.0000 0.9715
vn 0.3014 0.0000 0.9535
vn 0.3575 0.0000 0.9339
vn 0.4053 0.0000 0.9142
vn 0.4453 0.0000 0.8954
vn 0.4781 0.0000 0.8783
vn 0.5045 0.0000 0.8634
vn 0.5250 0.0000 0.8511
vn 0.5402 0.0000 0.8415
vn -0.4761 0.0000 0.8794
vn -0.8857 0.0000 -0.4642
usemtl Material.001
s off
f 11//1 13//1 12//1
f 11//1 14//1 13//1
f 10//1 14//1 11//1
f 10//1 15//1 14//1
f 9//1 15//1 10//1
f 9//1 16//1 15//1
f 8//1 16//1 9//1
f 8//1 17//1 16//1
f 8//1 18//1 17//1
f 7//1 18//1 8//1
f 47//1 49//1 48//1
f 7//1 19//1 18//1
f 6//1 19//1 7//1
f 6//1 20//1 19//1
f 46//1 49//1 47//1
f 5//1 20//1 6//1
f 5//1 21//1 20//1
f 5//1 22//1 21//1
f 4//1 22//1 5//1
f 45//1 49//1 46//1
f 4//1 23//1 22//1
f 3//1 23//1 4//1
f 3//1 24//1 23//1
f 44//1 49//1 45//1
f 3//1 25//1 24//1
f 2//1 25//1 3//1
f 43//1 49//1 44//1
f 2//1 26//1 25//1
f 1//1 26//1 2//1
f 1//1 27//1 26//1
f 42//1 49//1 43//1
f 1//1 28//1 27//1
f 98//1 28//1 1//1
f 41//1 49//1 42//1
f 98//1 29//1 28//1
f 98//1 30//1 29//1
f 40//1 49//1 41//1
f 97//1 96//1 98//1
f 96//1 95//1 98//1
f 95//1 94//1 98//1
f 94//1 93//1 98//1
f 93//1 92//1 98//1
f 92//1 91//1 98//1
f 91//1 90//1 98//1
f 90//1 89//1 98//1
f 89//1 88//1 98//1
f 88//1 87//1 98//1
f 87//1 86//1 98//1
f 86//1 30//1 98//1
f 86//1 31//1 30//1
f 39//1 49//1 40//1
f 86//1 85//1 31//1
f 85//1 32//1 31//1
f 85//1 33//1 32//1
f 38//1 49//1 39//1
f 85//1 34//1 33//1
f 37//1 49//1 38//1
f 85//1 35//1 34//1
f 36//1 49//1 37//1
f 85//1 36//1 35//1
f 85//1 49//1 36//1
f 84//1 49//1 85//1
f 83//1 49//1 84//1
f 82//1 49//1 83//1
f 81//1 49//1 82//1
f 80//1 49//1 81//1
f 79//1 49//1 80//1
f 78//1 49//1 79//1
f 78//1 50//1 49//1
f 77//1 50//1 78//1
f 76//1 50//1 77//1
f 76//1 51//1 50//1
f 75//1 51//1 76//1
f 74//1 51//1 75//1
f 74//1 52//1 51//1
f 73//1 52//1 74//1
f 73//1 53//1 52//1
f 72//1 53//1 73//1
f 71//1 53//1 72//1
f 71//1 54//1 53//1
f 70//1 54//1 71//1
f 70//1 55//1 54//1
f 69//1 55//1 70//1
f 68//1 55//1 69//1
f 68//1 56//1 55//1
f 67//1 56//1 68//1
f 67//1 57//1 56//1
f 66//1 57//1 67//1
f 66//1 58//1 57//1
f 65//1 58//1 66//1
f 64//1 58//1 65//1
f 64//1 59//1 58//1
f 63//1 59//1 64//1
f 63//1 60//1 59//1
f 62//1 60//1 63//1
f 62//1 61//1 60//1
f 111//2 109//2 110//2
f 112//2 109//2 111//2
f 112//2 108//2 109//2
f 113//2 108//2 112//2
f 113//2 107//2 108//2
f 114//2 107//2 113//2
f 114//2 106//2 107//2
f 115//2 106//2 114//2
f 116//2 106//2 115//2
f 116//2 105//2 106//2
f 147//2 145//2 146//2
f 117//2 105//2 116//2
f 117//2 104//2 105//2
f 118//2 104//2 117//2
f 147//2 144//2 145//2
f 118//2 103//2 104//2
f 119//2 103//2 118//2
f 120//2 103//2 119//2
f 120//2 102//2 103//2
f 147//2 143//2 144//2
f 121//2 102//2 120//2
f 121//2 101//2 102//2
f 122//2 101//2 121//2
f 147//2 142//2 143//2
f 123//2 101//2 122//2
f 123//2 100//2 101//2
f 147//2 141//2 142//2
f 124//2 100//2 123//2
f 124//2 99//2 100//2
f 125//2 99//2 124//2
f 147//2 140//2 141//2
f 126//2 99//2 125//2
f 126//2 196//2 99//2
f 147//2 139//2 140//2
f 127//2 196//2 126//2
f 128//2 196//2 127//2
f 147//2 138//2 139//2
f 194//2 195//2 196//2
f 193//2 194//2 196//2
f 192//2 193//2 196//2
f 191//2 192//2 196//2
f 190//2 191//2 196//2
f 189//2 190//2 196//2
f 188//2 189//2 196//2
f 187//2 188//2 196//2
f 186//2 187//2 196//2
f 185//2 186//2 196//2
f 184//2 185//2 196//2
f 128//2 184//2 196//2
f 129//2 184//2 128//2
f 147//2 137//2 138//2
f 183//2 184//2 129//2
f 130//2 183//2 129//2
f 131//2 183//2 130//2
f 147//2 136//2 137//2
f 132//2 183//2 131//2
f 147//2 135//2 136//2
f 133//2 183//2 132//2
f 147//2 134//2 135//2
f 134//2 183//2 133//2
f 147//2 183//2 134//2
f 147//2 182//2 183//2
f 147//2 181//2 182//2
f 147//2 180//2 181//2
f 147//2 179//2 180//2
f 147//2 178//2 179//2
f 147//2 177//2 178//2
f 147//2 176//2 177//2
f 148//2 176//2 147//2
f 148//2 175//2 176//2
f 148//2 174//2 175//2
f 149//2 174//2 148//2
f 149//2 173//2 174//2
f 149//2 172//2 173//2
f 150//2 172//2 149//2
f 150//2 171//2 172//2
f 151//2 171//2 150//2
f 151//2 170//2 171//2
f 151//2 169//2 170//2
f 152//2 169//2 151//2
f 152//2 168//2 169//2
f 153//2 168//2 152//2
f 153//2 167//2 168//2
f 153//2 166//2 167//2
f 154//2 166//2 153//2
f 154//2 165//2 166//2
f 155//2 165//2 154//2
f 155//2 164//2 165//2
f 156//2 164//2 155//2
f 156//2 163//2 164//2
f 156//2 162//2 163//2
f 157//2 162//2 156//2
f 157//2 161//2 162//2
f 158//2 161//2 157//2
f 158//2 160//2 161//2
f 159//2 160//2 158//2
s 1
f 198//3 200//4 199//4 197//3
f 200//4 202//5 201//5 199//4
f 202//5 204//6 203//6 201//5
f 204//6 206//7 205//7 203//6
f 206//7 208//8 207//8 205//7
f 208//8 210//9 209//9 207//8
f 210//9 212//10 211//10 209//9
f 212//10 214//11 213//11 211//10
f 214//11 216//12 215//12 213//11
f 216//12 218//13 217//13 215//12
f 218//13 220//14 219//14 217//13
f 220//14 222//15 221//15 219//14
f 222//15 224//16 223//16 221//15
f 224//16 226//17 225//17 223//16
f 226//17 228//18 227//18 225//17
f 228//18 230//19 229//19 227//18
f 230//19 232//20 231//20 229//19
f 232//20 234//21 233//21 231//20
f 234//21 236//22 235//22 233//21
f 236//22 238//23 237//23 235//22
f 238//23 240//24 239//24 237//23
f 240//24 242//25 241//25 239//24
f 242//25 244//26 243//26 241//25
f 244//26 246//27 245//27 243//26
f 246//27 248//28 247//28 245//27
f 248//28 250//29 249//29 247//28
f 250//29 252//30 251//30 249//29
f 252//30 254//31 253//31 251//30
f 254//31 256//32 255//32 253//31
f 256//32 258//33 257//33 255//32
f 258//33 260//34 259//34 257//33
f 260//34 262//35 261//35 259//34
f 262//35 264//36 263//36 261//35
f 264//36 266//37 265//37 263//36
f 266//37 268//38 267//38 265//37
f 268//38 270//39 269//39 267//38
f 270//39 272//40 271//40 269//39
f 272//40 274//41 273//41 271//40
f 274//41 276//42 275//42 273//41
f 276//42 278//43 277//43 275//42
f 278//43 280//44 279//44 277//43
f 280//44 282//45 281//45 279//44
f 282//45 284//46 283//46 281//45
f 284//46 286//47 285//47 283//46
f 286//47 288//48 287//48 285//47
f 288//48 290//49 289//49 287//48
f 290//49 292//50 291//50 289//49
f 292//50 294//51 293//51 291//50
f 294//51 296//52 295//52 293//51
f 296//52 298//53 297//53 295//52
f 298//53 300//54 299//54 297//53
f 300//54 302//55 301//55 299//54
f 302//55 304//56 303//56 301//55
f 304//56 306//57 305//57 303//56
f 306//57 308//58 307//58 305//57
f 308//58 310//59 309//59 307//58
f 310//59 312//60 311//60 309//59
f 312//60 314//61 313//61 311//60
f 314//61 316//62 315//62 313//61
f 316//62 318//63 317//63 315//62
f 318//63 320//64 319//64 317//63
f 320//64 322//65 321//65 319//64
f 322//65 324//66 323//66 321//65
f 324//66 326//67 325//67 323//66
f 326//67 328//68 327//68 325//67
f 328//68 330//69 329//69 327//68
f 330//69 332//70 331//70 329//69
f 332//70 334//71 333//71 331//70
f 334//71 336//72 335//72 333//71
f 336//72 338//73 337//73 335//72
f 338//73 340//74 339//74 337//73
f 340//74 342//75 341//75 339//74
f 342//75 344//76 343//76 341//75
f 344//76 346//77 345//77 343//76
f 346//77 348//78 347//78 345//77
f 348//78 350//79 349//79 347//78
f 350//79 352//80 351//80 349//79
f 352//80 354//81 353//81 351//80
f 354//81 356//82 355//82 353//81
f 356//82 358//83 357//83 355//82
f 358//83 360//84 359//84 357//83
f 360//84 362//85 361//85 359//84
f 362//85 364//86 363//86 361//85
f 364//86 366//87 365//87 363//86
f 366//87 368//88 367//88 365//87
f 368//88 370//89 369//89 367//88
f 370//89 372//90 371//90 369//89
f 372//90 374//91 373//91 371//90
f 374//91 376//92 375//92 373//91
f 376//92 378//93 377//93 375//92
f 378//93 380//94 379//94 377//93
f 380//94 382//95 381//95 379//94
f 382//95 384//96 383//96 381//95
f 384//96 386//97 385//97 383//96
f 386//97 388//98 387//98 385//97
f 388//98 390//99 389//99 387//98
f 390//99 392//100 391//100 389//99
f 392//100 198//3 197//3 391//100
