# Blender v2.79 (sub 0) OBJ File: 'tilde.blend'
# www.blender.org
mtllib tilde.mtl
o Text_CUText
v -0.383116 0.050000 0.248162
v -0.500000 0.050000 0.173333
v -0.474375 0.050000 0.078868
v -0.430007 0.050000 -0.040806
v -0.381846 0.050000 -0.127228
v -0.327480 0.050000 -0.187112
v -0.272980 0.050000 -0.225021
v -0.218555 0.050000 -0.242513
v -0.147133 0.050000 -0.238649
v -0.082519 0.050000 -0.205421
v -0.000874 0.050000 -0.127197
v 0.140746 0.050000 0.021102
v 0.196587 0.050000 0.036939
v 0.241482 0.050000 0.030648
v 0.289048 0.050000 -0.005096
v 0.337564 0.050000 -0.091342
v 0.381989 0.050000 -0.249740
v 0.500000 0.050000 -0.170000
v 0.474366 0.050000 -0.075566
v 0.429996 0.050000 0.043680
v 0.381876 0.050000 0.129259
v 0.327495 0.050000 0.188120
v 0.272993 0.050000 0.225348
v 0.218531 0.050000 0.242533
v 0.147133 0.050000 0.238650
v 0.082519 0.050000 0.205421
v 0.004716 0.050000 0.131674
v -0.115309 0.050000 0.001636
v -0.155038 0.050000 -0.027156
v -0.206513 0.050000 -0.037538
v -0.262414 0.050000 -0.017059
v -0.322623 0.050000 0.055482
v -0.383116 -0.050000 0.248162
v -0.500000 -0.050000 0.173333
v -0.474375 -0.050000 0.078868
v -0.430007 -0.050000 -0.040806
v -0.381846 -0.050000 -0.127228
v -0.327480 -0.050000 -0.187112
v -0.272980 -0.050000 -0.225021
v -0.218555 -0.050000 -0.242513
v -0.147133 -0.050000 -0.238649
v -0.082519 -0.050000 -0.205421
v -0.000874 -0.050000 -0.127197
v 0.116536 -0.050000 -0.000565
v 0.155038 -0.050000 0.027156
v 0.196587 -0.050000 0.036939
v 0.241482 -0.050000 0.030648
v 0.289048 -0.050000 -0.005096
v 0.337564 -0.050000 -0.091342
v 0.381989 -0.050000 -0.249740
v 0.500000 -0.050000 -0.170000
v 0.474366 -0.050000 -0.075566
v 0.429996 -0.050000 0.043680
v 0.381876 -0.050000 0.129259
v 0.327495 -0.050000 0.188120
v 0.272993 -0.050000 0.225348
v 0.218531 -0.050000 0.242533
v 0.147133 -0.050000 0.238650
v 0.082519 -0.050000 0.205421
v 0.004716 -0.050000 0.131674
v -0.115309 -0.050000 0.001636
v -0.155038 -0.050000 -0.027156
v -0.206513 -0.050000 -0.037538
v -0.262414 -0.050000 -0.017059
v -0.322623 -0.050000 0.055482
v -0.383056 -0.050000 0.248534
v -0.383095 0.050000 0.247533
v -0.502102 -0.050000 0.169002
v -0.502156 0.050000 0.170812
v -0.361870 -0.050000 -0.169345
v -0.366184 0.050000 -0.164403
v -0.111504 -0.050000 -0.239173
v -0.120372 0.050000 -0.242117
v 0.145745 0.050000 0.029952
v 0.155456 -0.050000 0.032715
v 0.266965 -0.050000 0.020843
v 0.290351 0.050000 0.007516
v 0.379291 -0.050000 -0.208585
v 0.382603 0.050000 -0.247867
v 0.502095 -0.050000 -0.165538
v 0.502157 0.050000 -0.167388
v 0.362584 -0.050000 0.170071
v 0.366870 0.050000 0.165218
v 0.117407 -0.050000 0.240287
v 0.120161 0.050000 0.241968
v -0.153561 -0.050000 -0.036248
v -0.130245 0.050000 -0.015609
v -0.237893 0.050000 -0.035187
v -0.301130 -0.050000 0.012086
v -0.321598 0.050000 0.053478
vn 0.0000 1.0000 0.0000
vn 0.0000 -1.0000 0.0000
vn 0.3262 0.0244 0.9449
vn 0.3290 0.0244 0.9440
vn -0.9531 -0.0071 0.3025
vn -0.9572 -0.0072 0.2893
vn 0.3519 -0.0083 -0.9360
vn 0.2801 0.0218 -0.9597
vn 0.2211 0.0180 -0.9751
vn -0.2921 -0.2197 -0.9308
vn -0.4327 -0.1673 -0.8858
vn -0.6559 0.0264 -0.7544
vn 0.3166 0.0185 0.9484
vn -0.2902 0.0332 0.9564
vn -0.5187 -0.0596 0.8528
vn 0.8868 -0.0287 0.4611
vn 0.7369 0.0433 0.6746
vn -0.6840 -0.0092 -0.7294
vn -0.6575 -0.0092 -0.7534
vn 0.2976 -0.0154 -0.9545
vn -0.5182 0.0270 -0.8548
vn 0.9294 -0.1336 -0.3439
vn 0.9346 -0.1316 -0.3303
vn 0.6839 -0.0015 0.7295
vn 0.6578 -0.0010 0.7532
vn -0.2410 0.0118 0.9705
vn -0.2606 0.0120 0.9653
usemtl Material.001
s off
f 7//1 9//1 8//1
f 7//1 10//1 9//1
f 6//1 10//1 7//1
f 16//1 18//1 17//1
f 16//1 19//1 18//1
f 6//1 11//1 10//1
f 5//1 11//1 6//1
f 4//1 11//1 5//1
f 30//1 11//1 4//1
f 15//1 19//1 16//1
f 29//1 11//1 30//1
f 4//1 31//1 30//1
f 15//1 20//1 19//1
f 29//1 12//1 11//1
f 28//1 12//1 29//1
f 3//1 31//1 4//1
f 3//1 32//1 31//1
f 14//1 20//1 15//1
f 27//1 12//1 28//1
f 27//1 13//1 12//1
f 13//1 20//1 14//1
f 27//1 20//1 13//1
f 27//1 21//1 20//1
f 3//1 1//1 32//1
f 2//1 1//1 3//1
f 27//1 22//1 21//1
f 26//1 22//1 27//1
f 26//1 23//1 22//1
f 25//1 23//1 26//1
f 25//1 24//1 23//1
f 41//2 39//2 40//2
f 42//2 39//2 41//2
f 42//2 38//2 39//2
f 51//2 49//2 50//2
f 52//2 49//2 51//2
f 43//2 38//2 42//2
f 43//2 37//2 38//2
f 43//2 36//2 37//2
f 43//2 63//2 36//2
f 52//2 48//2 49//2
f 43//2 62//2 63//2
f 64//2 36//2 63//2
f 53//2 48//2 52//2
f 44//2 62//2 43//2
f 44//2 61//2 62//2
f 64//2 35//2 36//2
f 45//2 61//2 44//2
f 65//2 35//2 64//2
f 53//2 47//2 48//2
f 45//2 60//2 61//2
f 46//2 60//2 45//2
f 53//2 46//2 47//2
f 53//2 60//2 46//2
f 54//2 60//2 53//2
f 33//2 35//2 65//2
f 33//2 34//2 35//2
f 55//2 60//2 54//2
f 55//2 59//2 60//2
f 56//2 59//2 55//2
f 56//2 58//2 59//2
f 57//2 58//2 56//2
s 1
f 66//3 67//4 69//5 68//6
f 74//7 72//8 73//9
f 79//10 78//11 77//12
f 88//13 86//14 87//15
f 90//16 89//17 88//13
f 68//6 69//5 71//18 70//19
f 70//19 71//18 73//9 72//8
f 75//20 74//7 77//12 76//21
f 74//7 75//20 72//8
f 78//11 79//10 81//22 80//23
f 77//12 78//11 76//21
f 80//23 81//22 83//24 82//25
f 82//25 83//24 85//26 84//27
f 84//27 85//26 87//15 86//14
f 89//17 90//16 67//4 66//3
f 88//13 89//17 86//14
